<?xml version="1.0" encoding="UTF-8"?>
<svg xmlns="http://www.w3.org/2000/svg" xmlns:xlink="http://www.w3.org/1999/xlink" width="612pt" height="288pt" viewBox="0 0 612 288" version="1.1">
<g id="surface131">
<rect x="0" y="0" width="612" height="288" style="fill:rgb(100%,100%,100%);fill-opacity:1;stroke:none;"/>
<path style="fill-rule:nonzero;fill:rgb(0%,0%,0%);fill-opacity:1;stroke-width:0.75;stroke-linecap:round;stroke-linejoin:round;stroke:rgb(0%,0%,0%);stroke-opacity:1;stroke-miterlimit:10;" d="M 368.410156 159.847656 L 378.996094 146.070312 L 377.5 146.519531 L 379.929688 144.972656 L 379.0625 147.71875 L 379.109375 146.160156 L 368.523438 159.933594 Z "/>
<path style="fill-rule:nonzero;fill:rgb(0%,0%,0%);fill-opacity:1;stroke-width:0.75;stroke-linecap:round;stroke-linejoin:round;stroke:rgb(0%,0%,0%);stroke-opacity:1;stroke-miterlimit:10;" d="M 362.992188 159.453125 L 352.53125 139.476562 L 352.3125 141.023438 L 351.929688 138.167969 L 354.054688 140.109375 L 352.660156 139.410156 L 363.121094 159.386719 Z "/>
<path style="fill-rule:nonzero;fill:rgb(0%,0%,0%);fill-opacity:1;stroke-width:0.75;stroke-linecap:round;stroke-linejoin:round;stroke:rgb(0%,0%,0%);stroke-opacity:1;stroke-miterlimit:10;" d="M 363.667969 159.148438 L 363.460938 158.554688 L 363.015625 160.050781 L 363.054688 157.167969 L 364.875 159.402344 L 363.597656 158.507812 L 363.804688 159.101562 Z "/>
<path style="fill-rule:nonzero;fill:rgb(0%,0%,0%);fill-opacity:1;stroke-width:0.75;stroke-linecap:round;stroke-linejoin:round;stroke:rgb(0%,0%,0%);stroke-opacity:1;stroke-miterlimit:10;" d="M 370.058594 165.796875 L 384.144531 171.796875 L 383.339844 170.460938 L 385.441406 172.425781 L 382.566406 172.273438 L 384.089844 171.929688 L 370.003906 165.929688 Z "/>
<path style="fill-rule:nonzero;fill:rgb(0%,0%,0%);fill-opacity:1;stroke-width:0.75;stroke-linecap:round;stroke-linejoin:round;stroke:rgb(0%,0%,0%);stroke-opacity:1;stroke-miterlimit:10;" d="M 364.328125 158.960938 L 356.960938 122.472656 L 356.316406 123.894531 L 356.746094 121.046875 L 358.25 123.503906 L 357.101562 122.445312 L 364.46875 158.929688 Z "/>
<path style="fill-rule:nonzero;fill:rgb(0%,0%,0%);fill-opacity:1;stroke-width:0.75;stroke-linecap:round;stroke-linejoin:round;stroke:rgb(0%,0%,0%);stroke-opacity:1;stroke-miterlimit:10;" d="M 365.789062 158.859375 L 367.019531 145.640625 L 365.992188 146.816406 L 367.222656 144.214844 L 367.953125 147 L 367.164062 145.652344 L 365.933594 158.875 Z "/>
<path style="fill-rule:nonzero;fill:rgb(0%,0%,0%);fill-opacity:1;stroke-width:0.75;stroke-linecap:round;stroke-linejoin:round;stroke:rgb(0%,0%,0%);stroke-opacity:1;stroke-miterlimit:10;" d="M 379.988281 145.015625 L 369.402344 158.792969 L 370.894531 158.34375 L 368.464844 159.890625 L 369.335938 157.144531 L 369.285156 158.703125 L 379.875 144.929688 Z "/>
<path style="fill-rule:nonzero;fill:rgb(0%,0%,0%);fill-opacity:1;stroke-width:0.75;stroke-linecap:round;stroke-linejoin:round;stroke:rgb(0%,0%,0%);stroke-opacity:1;stroke-miterlimit:10;" d="M 377.488281 138.765625 L 355.957031 134.914062 L 357.042969 136.035156 L 354.550781 134.589844 L 357.386719 134.097656 L 355.980469 134.773438 L 377.511719 138.625 Z "/>
<path style="fill-rule:nonzero;fill:rgb(0%,0%,0%);fill-opacity:1;stroke-width:0.75;stroke-linecap:round;stroke-linejoin:round;stroke:rgb(0%,0%,0%);stroke-opacity:1;stroke-miterlimit:10;" d="M 378.007812 142.578125 L 351.410156 154.652344 L 352.941406 154.960938 L 350.070312 155.183594 L 352.128906 153.167969 L 351.351562 154.519531 L 377.949219 142.449219 Z "/>
<path style="fill-rule:nonzero;fill:rgb(0%,0%,0%);fill-opacity:1;stroke-width:0.75;stroke-linecap:round;stroke-linejoin:round;stroke:rgb(0%,0%,0%);stroke-opacity:1;stroke-miterlimit:10;" d="M 378.257812 143.0625 L 367.089844 149.308594 L 368.640625 149.488281 L 365.796875 149.949219 L 367.679688 147.769531 L 367.019531 149.183594 L 378.1875 142.9375 Z "/>
<path style="fill-rule:nonzero;fill:rgb(0%,0%,0%);fill-opacity:1;stroke-width:0.75;stroke-linecap:round;stroke-linejoin:round;stroke:rgb(0%,0%,0%);stroke-opacity:1;stroke-miterlimit:10;" d="M 384.753906 146.257812 L 387.628906 169.261719 L 388.375 167.890625 L 387.734375 170.699219 L 386.421875 168.136719 L 387.484375 169.277344 L 384.609375 146.273438 Z "/>
<path style="fill-rule:nonzero;fill:rgb(0%,0%,0%);fill-opacity:1;stroke-width:0.75;stroke-linecap:round;stroke-linejoin:round;stroke:rgb(0%,0%,0%);stroke-opacity:1;stroke-miterlimit:10;" d="M 382.089844 133.605469 L 374.761719 107.003906 L 374.214844 108.46875 L 374.445312 105.597656 L 376.117188 107.945312 L 374.898438 106.964844 L 382.226562 133.570312 Z "/>
<path style="fill-rule:nonzero;fill:rgb(0%,0%,0%);fill-opacity:1;stroke-width:0.75;stroke-linecap:round;stroke-linejoin:round;stroke:rgb(0%,0%,0%);stroke-opacity:1;stroke-miterlimit:10;" d="M 377.597656 138.234375 L 377.746094 138.273438 L 378.734375 139.484375 L 376.371094 137.835938 L 379.242188 137.578125 L 377.78125 138.136719 L 377.636719 138.097656 Z "/>
<path style="fill-rule:nonzero;fill:rgb(0%,0%,0%);fill-opacity:1;stroke-width:0.75;stroke-linecap:round;stroke-linejoin:round;stroke:rgb(0%,0%,0%);stroke-opacity:1;stroke-miterlimit:10;" d="M 351.992188 138.132812 L 362.453125 158.113281 L 362.675781 156.566406 L 363.058594 159.421875 L 360.929688 157.480469 L 362.324219 158.179688 L 351.863281 138.199219 Z "/>
<path style="fill-rule:nonzero;fill:rgb(0%,0%,0%);fill-opacity:1;stroke-width:0.75;stroke-linecap:round;stroke-linejoin:round;stroke:rgb(0%,0%,0%);stroke-opacity:1;stroke-miterlimit:10;" d="M 354.5625 134.519531 L 376.09375 138.371094 L 375.007812 137.246094 L 377.5 138.695312 L 374.664062 139.1875 L 376.070312 138.511719 L 354.539062 134.660156 Z "/>
<path style="fill-rule:nonzero;fill:rgb(0%,0%,0%);fill-opacity:1;stroke-width:0.75;stroke-linecap:round;stroke-linejoin:round;stroke:rgb(0%,0%,0%);stroke-opacity:1;stroke-miterlimit:10;" d="M 349.1875 138.726562 L 347.925781 152.078125 L 348.953125 150.902344 L 347.71875 153.503906 L 346.992188 150.71875 L 347.78125 152.066406 L 349.042969 138.714844 Z "/>
<path style="fill-rule:nonzero;fill:rgb(0%,0%,0%);fill-opacity:1;stroke-width:0.75;stroke-linecap:round;stroke-linejoin:round;stroke:rgb(0%,0%,0%);stroke-opacity:1;stroke-miterlimit:10;" d="M 353.664062 130.734375 L 357.785156 127.824219 L 356.222656 127.808594 L 359.003906 127.054688 L 357.359375 129.417969 L 357.867188 127.941406 L 353.746094 130.851562 Z "/>
<path style="fill-rule:nonzero;fill:rgb(0%,0%,0%);fill-opacity:1;stroke-width:0.75;stroke-linecap:round;stroke-linejoin:round;stroke:rgb(0%,0%,0%);stroke-opacity:1;stroke-miterlimit:10;" d="M 352.402344 129.519531 L 368.757812 105.921875 L 367.285156 106.441406 L 369.636719 104.777344 L 368.902344 107.5625 L 368.875 106.003906 L 352.519531 129.601562 Z "/>
<path style="fill-rule:nonzero;fill:rgb(0%,0%,0%);fill-opacity:1;stroke-width:0.75;stroke-linecap:round;stroke-linejoin:round;stroke:rgb(0%,0%,0%);stroke-opacity:1;stroke-miterlimit:10;" d="M 354.609375 134.148438 L 358.003906 134.5 L 356.839844 133.460938 L 359.429688 134.722656 L 356.636719 135.421875 L 357.988281 134.644531 L 354.59375 134.292969 Z "/>
<path style="fill-rule:nonzero;fill:rgb(0%,0%,0%);fill-opacity:1;stroke-width:0.75;stroke-linecap:round;stroke-linejoin:round;stroke:rgb(0%,0%,0%);stroke-opacity:1;stroke-miterlimit:10;" d="M 350.132812 157.417969 L 359.445312 161.316406 L 358.628906 159.984375 L 360.746094 161.941406 L 357.871094 161.804688 L 359.390625 161.449219 L 350.074219 157.550781 Z "/>
<path style="fill-rule:nonzero;fill:rgb(0%,0%,0%);fill-opacity:1;stroke-width:0.75;stroke-linecap:round;stroke-linejoin:round;stroke:rgb(0%,0%,0%);stroke-opacity:1;stroke-miterlimit:10;" d="M 350.039062 155.117188 L 376.636719 143.042969 L 375.105469 142.734375 L 377.976562 142.511719 L 375.921875 144.527344 L 376.695312 143.175781 L 350.097656 155.246094 Z "/>
<path style="fill-rule:nonzero;fill:rgb(0%,0%,0%);fill-opacity:1;stroke-width:0.75;stroke-linecap:round;stroke-linejoin:round;stroke:rgb(0%,0%,0%);stroke-opacity:1;stroke-miterlimit:10;" d="M 347.648438 153.5 L 348.910156 140.148438 L 347.878906 141.320312 L 349.117188 138.71875 L 349.839844 141.507812 L 349.050781 140.160156 L 347.789062 153.511719 Z "/>
<path style="fill-rule:nonzero;fill:rgb(0%,0%,0%);fill-opacity:1;stroke-width:0.75;stroke-linecap:round;stroke-linejoin:round;stroke:rgb(0%,0%,0%);stroke-opacity:1;stroke-miterlimit:10;" d="M 350.199219 155.515625 L 355.144531 154.109375 L 353.679688 153.578125 L 356.550781 153.785156 L 354.21875 155.472656 L 355.1875 154.25 L 350.238281 155.65625 Z "/>
<path style="fill-rule:nonzero;fill:rgb(0%,0%,0%);fill-opacity:1;stroke-width:0.75;stroke-linecap:round;stroke-linejoin:round;stroke:rgb(0%,0%,0%);stroke-opacity:1;stroke-miterlimit:10;" d="M 347.210938 153.5 L 344.90625 112.710938 L 344.066406 114.027344 L 344.894531 111.269531 L 346.03125 113.914062 L 345.050781 112.703125 L 347.355469 153.492188 Z "/>
<path style="fill-rule:nonzero;fill:rgb(0%,0%,0%);fill-opacity:1;stroke-width:0.75;stroke-linecap:round;stroke-linejoin:round;stroke:rgb(0%,0%,0%);stroke-opacity:1;stroke-miterlimit:10;" d="M 388.128906 154.183594 L 371.375 161.390625 L 372.898438 161.730469 L 370.023438 161.894531 L 372.121094 159.921875 L 371.320312 161.257812 L 388.074219 154.050781 Z "/>
<path style="fill-rule:nonzero;fill:rgb(0%,0%,0%);fill-opacity:1;stroke-width:0.75;stroke-linecap:round;stroke-linejoin:round;stroke:rgb(0%,0%,0%);stroke-opacity:1;stroke-miterlimit:10;" d="M 389.113281 151.332031 L 387.136719 147.054688 L 386.839844 148.585938 L 386.597656 145.71875 L 388.628906 147.761719 L 387.265625 146.992188 L 389.246094 151.273438 Z "/>
<path style="fill-rule:nonzero;fill:rgb(0%,0%,0%);fill-opacity:1;stroke-width:0.75;stroke-linecap:round;stroke-linejoin:round;stroke:rgb(0%,0%,0%);stroke-opacity:1;stroke-miterlimit:10;" d="M 387.9375 153.492188 L 351.761719 156.128906 L 353.089844 156.949219 L 350.320312 156.164062 L 352.945312 154.984375 L 351.75 155.988281 L 387.925781 153.347656 Z "/>
<path style="fill-rule:nonzero;fill:rgb(0%,0%,0%);fill-opacity:1;stroke-width:0.75;stroke-linecap:round;stroke-linejoin:round;stroke:rgb(0%,0%,0%);stroke-opacity:1;stroke-miterlimit:10;" d="M 387.925781 153.269531 L 367.875 152.675781 L 369.113281 153.625 L 366.4375 152.558594 L 369.171875 151.65625 L 367.878906 152.53125 L 387.929688 153.128906 Z "/>
<path style="fill-rule:nonzero;fill:rgb(0%,0%,0%);fill-opacity:1;stroke-width:0.75;stroke-linecap:round;stroke-linejoin:round;stroke:rgb(0%,0%,0%);stroke-opacity:1;stroke-miterlimit:10;" d="M 389.945312 155.421875 L 388.585938 169.265625 L 389.617188 168.09375 L 388.375 170.691406 L 387.65625 167.902344 L 388.441406 169.25 L 389.804688 155.40625 Z "/>
<path style="fill-rule:nonzero;fill:rgb(0%,0%,0%);fill-opacity:1;stroke-width:0.75;stroke-linecap:round;stroke-linejoin:round;stroke:rgb(0%,0%,0%);stroke-opacity:1;stroke-miterlimit:10;" d="M 390.011719 151.101562 L 389.96875 119.445312 L 389.054688 120.710938 L 390.035156 118.003906 L 391.027344 120.707031 L 390.109375 119.441406 L 390.15625 151.101562 Z "/>
<path style="fill-rule:nonzero;fill:rgb(0%,0%,0%);fill-opacity:1;stroke-width:0.75;stroke-linecap:round;stroke-linejoin:round;stroke:rgb(0%,0%,0%);stroke-opacity:1;stroke-miterlimit:10;" d="M 363.125 157.144531 L 363.332031 157.742188 L 363.777344 156.246094 L 363.738281 159.125 L 361.917969 156.894531 L 363.195312 157.789062 L 362.988281 157.195312 Z "/>
<path style="fill-rule:nonzero;fill:rgb(0%,0%,0%);fill-opacity:1;stroke-width:0.75;stroke-linecap:round;stroke-linejoin:round;stroke:rgb(0%,0%,0%);stroke-opacity:1;stroke-miterlimit:10;" d="M 365.761719 149.886719 L 376.933594 143.636719 L 375.382812 143.460938 L 378.222656 143 L 376.34375 145.179688 L 377.003906 143.765625 L 365.832031 150.011719 Z "/>
<path style="fill-rule:nonzero;fill:rgb(0%,0%,0%);fill-opacity:1;stroke-width:0.75;stroke-linecap:round;stroke-linejoin:round;stroke:rgb(0%,0%,0%);stroke-opacity:1;stroke-miterlimit:10;" d="M 358.648438 148.1875 L 352.988281 139.21875 L 352.890625 140.777344 L 352.28125 137.964844 L 354.558594 139.726562 L 353.109375 139.144531 L 358.769531 148.109375 Z "/>
<path style="fill-rule:nonzero;fill:rgb(0%,0%,0%);fill-opacity:1;stroke-width:0.75;stroke-linecap:round;stroke-linejoin:round;stroke:rgb(0%,0%,0%);stroke-opacity:1;stroke-miterlimit:10;" d="M 366.4375 152.488281 L 386.488281 153.085938 L 385.25 152.132812 L 387.925781 153.199219 L 385.191406 154.101562 L 386.484375 153.226562 L 366.433594 152.632812 Z "/>
<path style="fill-rule:nonzero;fill:rgb(0%,0%,0%);fill-opacity:1;stroke-width:0.75;stroke-linecap:round;stroke-linejoin:round;stroke:rgb(0%,0%,0%);stroke-opacity:1;stroke-miterlimit:10;" d="M 365.394531 155.484375 L 384.75 170.816406 L 384.324219 169.316406 L 385.835938 171.769531 L 383.101562 170.859375 L 384.660156 170.929688 L 365.304688 155.597656 Z "/>
<path style="fill-rule:nonzero;fill:rgb(0%,0%,0%);fill-opacity:1;stroke-width:0.75;stroke-linecap:round;stroke-linejoin:round;stroke:rgb(0%,0%,0%);stroke-opacity:1;stroke-miterlimit:10;" d="M 363.441406 147.800781 L 375.804688 120.929688 L 374.445312 121.699219 L 376.472656 119.652344 L 376.234375 122.523438 L 375.933594 120.992188 L 363.570312 147.863281 Z "/>
<path style="fill-rule:nonzero;fill:rgb(0%,0%,0%);fill-opacity:1;stroke-width:0.75;stroke-linecap:round;stroke-linejoin:round;stroke:rgb(0%,0%,0%);stroke-opacity:1;stroke-miterlimit:10;" d="M 361.730469 147.378906 L 363.058594 130.902344 L 362.046875 132.089844 L 363.246094 129.472656 L 364.011719 132.246094 L 363.203125 130.910156 L 361.875 147.390625 Z "/>
<path style="fill-rule:nonzero;fill:rgb(0%,0%,0%);fill-opacity:1;stroke-width:0.75;stroke-linecap:round;stroke-linejoin:round;stroke:rgb(0%,0%,0%);stroke-opacity:1;stroke-miterlimit:10;" d="M 363.179688 147.695312 L 364.257812 144.960938 L 362.945312 145.804688 L 364.855469 143.648438 L 364.777344 146.527344 L 364.394531 145.015625 L 363.316406 147.746094 Z "/>
<path style="fill-rule:nonzero;fill:rgb(0%,0%,0%);fill-opacity:1;stroke-width:0.75;stroke-linecap:round;stroke-linejoin:round;stroke:rgb(0%,0%,0%);stroke-opacity:1;stroke-miterlimit:10;" d="M 385.414062 172.492188 L 371.328125 166.492188 L 372.136719 167.828125 L 370.03125 165.863281 L 372.90625 166.015625 L 371.382812 166.359375 L 385.46875 172.363281 Z "/>
<path style="fill-rule:nonzero;fill:rgb(0%,0%,0%);fill-opacity:1;stroke-width:0.75;stroke-linecap:round;stroke-linejoin:round;stroke:rgb(0%,0%,0%);stroke-opacity:1;stroke-miterlimit:10;" d="M 387.664062 170.707031 L 384.789062 147.703125 L 384.039062 149.074219 L 384.683594 146.265625 L 385.996094 148.828125 L 384.933594 147.683594 L 387.804688 170.691406 Z "/>
<path style="fill-rule:nonzero;fill:rgb(0%,0%,0%);fill-opacity:1;stroke-width:0.75;stroke-linecap:round;stroke-linejoin:round;stroke:rgb(0%,0%,0%);stroke-opacity:1;stroke-miterlimit:10;" d="M 388.300781 170.683594 L 389.664062 156.839844 L 388.628906 158.011719 L 389.875 155.414062 L 390.589844 158.203125 L 389.804688 156.851562 L 388.445312 170.699219 Z "/>
<path style="fill-rule:nonzero;fill:rgb(0%,0%,0%);fill-opacity:1;stroke-width:0.75;stroke-linecap:round;stroke-linejoin:round;stroke:rgb(0%,0%,0%);stroke-opacity:1;stroke-miterlimit:10;" d="M 385.789062 171.824219 L 366.433594 156.492188 L 366.859375 157.992188 L 365.351562 155.539062 L 368.082031 156.449219 L 366.523438 156.378906 L 385.878906 171.710938 Z "/>
<path style="fill-rule:nonzero;fill:rgb(0%,0%,0%);fill-opacity:1;stroke-width:0.75;stroke-linecap:round;stroke-linejoin:round;stroke:rgb(0%,0%,0%);stroke-opacity:1;stroke-miterlimit:10;" d="M 386.679688 171.042969 L 372.671875 144.554688 L 372.457031 146.101562 L 372.0625 143.25 L 374.199219 145.179688 L 372.800781 144.488281 L 386.808594 170.976562 Z "/>
<path style="fill-rule:nonzero;fill:rgb(0%,0%,0%);fill-opacity:1;stroke-width:0.75;stroke-linecap:round;stroke-linejoin:round;stroke:rgb(0%,0%,0%);stroke-opacity:1;stroke-miterlimit:10;" d="M 389.113281 117.90625 L 385.761719 132.140625 L 386.941406 131.117188 L 385.363281 133.527344 L 385.023438 130.667969 L 385.621094 132.109375 L 388.972656 117.871094 Z "/>
<path style="fill-rule:nonzero;fill:rgb(0%,0%,0%);fill-opacity:1;stroke-width:0.75;stroke-linecap:round;stroke-linejoin:round;stroke:rgb(0%,0%,0%);stroke-opacity:1;stroke-miterlimit:10;" d="M 385.789062 114.496094 L 383.964844 114.8125 L 385.367188 115.496094 L 382.53125 114.988281 L 385.03125 113.554688 L 383.9375 114.671875 L 385.761719 114.351562 Z "/>
<path style="fill-rule:nonzero;fill:rgb(0%,0%,0%);fill-opacity:1;stroke-width:0.75;stroke-linecap:round;stroke-linejoin:round;stroke:rgb(0%,0%,0%);stroke-opacity:1;stroke-miterlimit:10;" d="M 386.019531 115.289062 L 370.460938 121.230469 L 371.96875 121.632812 L 369.089844 121.675781 L 371.265625 119.789062 L 370.410156 121.09375 L 385.96875 115.15625 Z "/>
<path style="fill-rule:nonzero;fill:rgb(0%,0%,0%);fill-opacity:1;stroke-width:0.75;stroke-linecap:round;stroke-linejoin:round;stroke:rgb(0%,0%,0%);stroke-opacity:1;stroke-miterlimit:10;" d="M 385.71875 113.96875 L 362.800781 115.113281 L 364.113281 115.960938 L 361.359375 115.113281 L 364.015625 113.996094 L 362.796875 114.96875 L 385.710938 113.828125 Z "/>
<path style="fill-rule:nonzero;fill:rgb(0%,0%,0%);fill-opacity:1;stroke-width:0.75;stroke-linecap:round;stroke-linejoin:round;stroke:rgb(0%,0%,0%);stroke-opacity:1;stroke-miterlimit:10;" d="M 386.609375 111.046875 L 378.503906 104.585938 L 378.925781 106.089844 L 377.421875 103.632812 L 380.152344 104.550781 L 378.59375 104.476562 L 386.699219 110.933594 Z "/>
<path style="fill-rule:nonzero;fill:rgb(0%,0%,0%);fill-opacity:1;stroke-width:0.75;stroke-linecap:round;stroke-linejoin:round;stroke:rgb(0%,0%,0%);stroke-opacity:1;stroke-miterlimit:10;" d="M 387.023438 116.785156 L 375.214844 128.546875 L 376.757812 128.300781 L 374.144531 129.511719 L 375.367188 126.902344 L 375.113281 128.445312 L 386.917969 116.679688 Z "/>
<path style="fill-rule:nonzero;fill:rgb(0%,0%,0%);fill-opacity:1;stroke-width:0.75;stroke-linecap:round;stroke-linejoin:round;stroke:rgb(0%,0%,0%);stroke-opacity:1;stroke-miterlimit:10;" d="M 379.324219 119.921875 L 382.15625 132.105469 L 382.757812 130.664062 L 382.414062 133.523438 L 380.839844 131.109375 L 382.015625 132.136719 L 379.183594 119.953125 Z "/>
<path style="fill-rule:nonzero;fill:rgb(0%,0%,0%);fill-opacity:1;stroke-width:0.75;stroke-linecap:round;stroke-linejoin:round;stroke:rgb(0%,0%,0%);stroke-opacity:1;stroke-miterlimit:10;" d="M 374.652344 118.082031 L 355.121094 130.324219 L 356.675781 130.425781 L 353.859375 131.027344 L 355.632812 128.753906 L 355.042969 130.199219 L 374.578125 117.960938 Z "/>
<path style="fill-rule:nonzero;fill:rgb(0%,0%,0%);fill-opacity:1;stroke-width:0.75;stroke-linecap:round;stroke-linejoin:round;stroke:rgb(0%,0%,0%);stroke-opacity:1;stroke-miterlimit:10;" d="M 382.519531 114.917969 L 384.34375 114.601562 L 382.941406 113.917969 L 385.773438 114.421875 L 383.277344 115.859375 L 384.367188 114.742188 L 382.546875 115.058594 Z "/>
<path style="fill-rule:nonzero;fill:rgb(0%,0%,0%);fill-opacity:1;stroke-width:0.75;stroke-linecap:round;stroke-linejoin:round;stroke:rgb(0%,0%,0%);stroke-opacity:1;stroke-miterlimit:10;" d="M 374.523438 117.871094 L 370.054688 120.328125 L 371.601562 120.515625 L 368.757812 120.957031 L 370.652344 118.789062 L 369.984375 120.199219 L 374.457031 117.746094 Z "/>
<path style="fill-rule:nonzero;fill:rgb(0%,0%,0%);fill-opacity:1;stroke-width:0.75;stroke-linecap:round;stroke-linejoin:round;stroke:rgb(0%,0%,0%);stroke-opacity:1;stroke-miterlimit:10;" d="M 373.957031 115.738281 L 362.804688 115.578125 L 364.058594 116.507812 L 361.367188 115.484375 L 364.085938 114.539062 L 362.808594 115.433594 L 373.957031 115.59375 Z "/>
<path style="fill-rule:nonzero;fill:rgb(0%,0%,0%);fill-opacity:1;stroke-width:0.75;stroke-linecap:round;stroke-linejoin:round;stroke:rgb(0%,0%,0%);stroke-opacity:1;stroke-miterlimit:10;" d="M 376.8125 111.664062 L 375.175781 106.878906 L 374.722656 108.375 L 374.78125 105.492188 L 376.585938 107.738281 L 375.3125 106.832031 L 376.949219 111.617188 Z "/>
<path style="fill-rule:nonzero;fill:rgb(0%,0%,0%);fill-opacity:1;stroke-width:0.75;stroke-linecap:round;stroke-linejoin:round;stroke:rgb(0%,0%,0%);stroke-opacity:1;stroke-miterlimit:10;" d="M 374.058594 114.792969 L 349.578125 108.917969 L 350.59375 110.101562 L 348.191406 108.515625 L 351.054688 108.1875 L 349.609375 108.78125 L 374.09375 114.652344 Z "/>
<path style="fill-rule:nonzero;fill:rgb(0%,0%,0%);fill-opacity:1;stroke-width:0.75;stroke-linecap:round;stroke-linejoin:round;stroke:rgb(0%,0%,0%);stroke-opacity:1;stroke-miterlimit:10;" d="M 376.359375 119.601562 L 372.707031 126.683594 L 374.101562 125.976562 L 371.984375 127.929688 L 372.347656 125.074219 L 372.578125 126.617188 L 376.234375 119.535156 Z "/>
<path style="fill-rule:nonzero;fill:rgb(0%,0%,0%);fill-opacity:1;stroke-width:0.75;stroke-linecap:round;stroke-linejoin:round;stroke:rgb(0%,0%,0%);stroke-opacity:1;stroke-miterlimit:10;" d="M 368.253906 127.265625 L 377.734375 134.835938 L 377.316406 133.332031 L 378.816406 135.792969 L 376.085938 134.871094 L 377.644531 134.949219 L 368.164062 127.378906 Z "/>
<path style="fill-rule:nonzero;fill:rgb(0%,0%,0%);fill-opacity:1;stroke-width:0.75;stroke-linecap:round;stroke-linejoin:round;stroke:rgb(0%,0%,0%);stroke-opacity:1;stroke-miterlimit:10;" d="M 367.597656 127.976562 L 387.742188 150.53125 L 387.578125 148.976562 L 388.648438 151.652344 L 386.109375 150.289062 L 387.632812 150.625 L 367.492188 128.074219 Z "/>
<path style="fill-rule:nonzero;fill:rgb(0%,0%,0%);fill-opacity:1;stroke-width:0.75;stroke-linecap:round;stroke-linejoin:round;stroke:rgb(0%,0%,0%);stroke-opacity:1;stroke-miterlimit:10;" d="M 363.316406 129.476562 L 361.992188 145.957031 L 363.003906 144.769531 L 361.804688 147.386719 L 361.039062 144.609375 L 361.847656 145.945312 L 363.171875 129.464844 Z "/>
<path style="fill-rule:nonzero;fill:rgb(0%,0%,0%);fill-opacity:1;stroke-width:0.75;stroke-linecap:round;stroke-linejoin:round;stroke:rgb(0%,0%,0%);stroke-opacity:1;stroke-miterlimit:10;" d="M 369.0625 121.609375 L 384.625 115.667969 L 383.113281 115.269531 L 385.996094 115.222656 L 383.816406 117.109375 L 384.675781 115.804688 L 369.113281 121.742188 Z "/>
<path style="fill-rule:nonzero;fill:rgb(0%,0%,0%);fill-opacity:1;stroke-width:0.75;stroke-linecap:round;stroke-linejoin:round;stroke:rgb(0%,0%,0%);stroke-opacity:1;stroke-miterlimit:10;" d="M 368.722656 120.894531 L 373.191406 118.4375 L 371.644531 118.246094 L 374.488281 117.808594 L 372.59375 119.972656 L 373.261719 118.5625 L 368.789062 121.019531 Z "/>
<path style="fill-rule:nonzero;fill:rgb(0%,0%,0%);fill-opacity:1;stroke-width:0.75;stroke-linecap:round;stroke-linejoin:round;stroke:rgb(0%,0%,0%);stroke-opacity:1;stroke-miterlimit:10;" d="M 359.640625 119.648438 L 360.574219 120.613281 L 360.804688 122.15625 L 359.625 119.53125 L 362.214844 120.78125 L 360.679688 120.511719 L 359.742188 119.550781 Z "/>
<path style="fill-rule:nonzero;fill:rgb(0%,0%,0%);fill-opacity:1;stroke-width:0.75;stroke-linecap:round;stroke-linejoin:round;stroke:rgb(0%,0%,0%);stroke-opacity:1;stroke-miterlimit:10;" d="M 365.726562 118.335938 L 370.242188 106.726562 L 368.929688 107.578125 L 370.828125 105.410156 L 370.765625 108.292969 L 370.375 106.78125 L 365.863281 118.386719 Z "/>
<path style="fill-rule:nonzero;fill:rgb(0%,0%,0%);fill-opacity:1;stroke-width:0.75;stroke-linecap:round;stroke-linejoin:round;stroke:rgb(0%,0%,0%);stroke-opacity:1;stroke-miterlimit:10;" d="M 365.742188 129.117188 L 364.648438 126.113281 L 365.074219 124.609375 L 365.074219 127.488281 L 363.222656 125.28125 L 364.515625 126.160156 L 365.605469 129.167969 Z "/>
<path style="fill-rule:nonzero;fill:rgb(0%,0%,0%);fill-opacity:1;stroke-width:0.75;stroke-linecap:round;stroke-linejoin:round;stroke:rgb(0%,0%,0%);stroke-opacity:1;stroke-miterlimit:10;" d="M 358 124.507812 L 330.96875 127.851562 L 332.335938 128.601562 L 329.53125 127.957031 L 332.097656 126.648438 L 330.953125 127.710938 L 357.980469 124.363281 Z "/>
<path style="fill-rule:nonzero;fill:rgb(0%,0%,0%);fill-opacity:1;stroke-width:0.75;stroke-linecap:round;stroke-linejoin:round;stroke:rgb(0%,0%,0%);stroke-opacity:1;stroke-miterlimit:10;" d="M 353.878906 120.894531 L 351.683594 127.570312 L 352.945312 126.652344 L 351.164062 128.914062 L 351.074219 126.035156 L 351.546875 127.523438 L 353.738281 120.847656 Z "/>
<path style="fill-rule:nonzero;fill:rgb(0%,0%,0%);fill-opacity:1;stroke-width:0.75;stroke-linecap:round;stroke-linejoin:round;stroke:rgb(0%,0%,0%);stroke-opacity:1;stroke-miterlimit:10;" d="M 361.355469 115.042969 L 384.273438 113.898438 L 382.964844 113.050781 L 385.714844 113.898438 L 383.0625 115.015625 L 384.28125 114.042969 L 361.363281 115.183594 Z "/>
<path style="fill-rule:nonzero;fill:rgb(0%,0%,0%);fill-opacity:1;stroke-width:0.75;stroke-linecap:round;stroke-linejoin:round;stroke:rgb(0%,0%,0%);stroke-opacity:1;stroke-miterlimit:10;" d="M 361.367188 115.410156 L 372.519531 115.574219 L 371.265625 114.640625 L 373.957031 115.664062 L 371.238281 116.613281 L 372.515625 115.71875 L 361.367188 115.554688 Z "/>
<path style="fill-rule:nonzero;fill:rgb(0%,0%,0%);fill-opacity:1;stroke-width:0.75;stroke-linecap:round;stroke-linejoin:round;stroke:rgb(0%,0%,0%);stroke-opacity:1;stroke-miterlimit:10;" d="M 359.675781 119.480469 L 358.738281 118.515625 L 358.511719 116.972656 L 359.691406 119.601562 L 357.097656 118.347656 L 358.636719 118.617188 L 359.570312 119.578125 Z "/>
<path style="fill-rule:nonzero;fill:rgb(0%,0%,0%);fill-opacity:1;stroke-width:0.75;stroke-linecap:round;stroke-linejoin:round;stroke:rgb(0%,0%,0%);stroke-opacity:1;stroke-miterlimit:10;" d="M 359.867188 111.523438 L 367.484375 104.769531 L 365.929688 104.925781 L 368.609375 103.867188 L 367.238281 106.398438 L 367.578125 104.875 L 359.964844 111.632812 Z "/>
<path style="fill-rule:nonzero;fill:rgb(0%,0%,0%);fill-opacity:1;stroke-width:0.75;stroke-linecap:round;stroke-linejoin:round;stroke:rgb(0%,0%,0%);stroke-opacity:1;stroke-miterlimit:10;" d="M 350.863281 112.132812 L 348.765625 110.644531 L 349.269531 112.121094 L 347.632812 109.753906 L 350.410156 110.511719 L 348.847656 110.527344 L 350.949219 112.011719 Z "/>
<path style="fill-rule:nonzero;fill:rgb(0%,0%,0%);fill-opacity:1;stroke-width:0.75;stroke-linecap:round;stroke-linejoin:round;stroke:rgb(0%,0%,0%);stroke-opacity:1;stroke-miterlimit:10;" d="M 358.683594 120.269531 L 362.808594 126.984375 L 362.925781 125.425781 L 363.5 128.25 L 361.246094 126.457031 L 362.6875 127.058594 L 358.5625 120.34375 Z "/>
<path style="fill-rule:nonzero;fill:rgb(0%,0%,0%);fill-opacity:1;stroke-width:0.75;stroke-linecap:round;stroke-linejoin:round;stroke:rgb(0%,0%,0%);stroke-opacity:1;stroke-miterlimit:10;" d="M 350.410156 117.886719 L 330.746094 126.988281 L 332.277344 127.285156 L 329.410156 127.53125 L 331.449219 125.5 L 330.683594 126.859375 L 350.351562 117.753906 Z "/>
<path style="fill-rule:nonzero;fill:rgb(0%,0%,0%);fill-opacity:1;stroke-width:0.75;stroke-linecap:round;stroke-linejoin:round;stroke:rgb(0%,0%,0%);stroke-opacity:1;stroke-miterlimit:10;" d="M 374.847656 105.472656 L 376.484375 110.253906 L 376.9375 108.761719 L 376.878906 111.640625 L 375.074219 109.398438 L 376.347656 110.300781 L 374.710938 105.515625 Z "/>
<path style="fill-rule:nonzero;fill:rgb(0%,0%,0%);fill-opacity:1;stroke-width:0.75;stroke-linecap:round;stroke-linejoin:round;stroke:rgb(0%,0%,0%);stroke-opacity:1;stroke-miterlimit:10;" d="M 370.898438 105.4375 L 366.382812 117.046875 L 367.695312 116.195312 L 365.792969 118.359375 L 365.859375 115.480469 L 366.25 116.992188 L 370.761719 105.386719 Z "/>
<path style="fill-rule:nonzero;fill:rgb(0%,0%,0%);fill-opacity:1;stroke-width:0.75;stroke-linecap:round;stroke-linejoin:round;stroke:rgb(0%,0%,0%);stroke-opacity:1;stroke-miterlimit:10;" d="M 368.65625 103.921875 L 361.042969 110.675781 L 362.59375 110.519531 L 359.917969 111.578125 L 361.289062 109.042969 L 360.945312 110.566406 L 368.5625 103.8125 Z "/>
<path style="fill-rule:nonzero;fill:rgb(0%,0%,0%);fill-opacity:1;stroke-width:0.75;stroke-linecap:round;stroke-linejoin:round;stroke:rgb(0%,0%,0%);stroke-opacity:1;stroke-miterlimit:10;" d="M 367.375 101.617188 L 349.578125 106.429688 L 351.039062 106.980469 L 348.167969 106.734375 L 350.523438 105.078125 L 349.539062 106.289062 L 367.339844 101.476562 Z "/>
<path style="fill-rule:nonzero;fill:rgb(0%,0%,0%);fill-opacity:1;stroke-width:0.75;stroke-linecap:round;stroke-linejoin:round;stroke:rgb(0%,0%,0%);stroke-opacity:1;stroke-miterlimit:10;" d="M 372.203125 105.757812 L 369.46875 125.632812 L 370.546875 124.503906 L 369.203125 127.050781 L 368.59375 124.234375 L 369.328125 125.613281 L 372.0625 105.738281 Z "/>
<path style="fill-rule:nonzero;fill:rgb(0%,0%,0%);fill-opacity:1;stroke-width:0.75;stroke-linecap:round;stroke-linejoin:round;stroke:rgb(0%,0%,0%);stroke-opacity:1;stroke-miterlimit:10;" d="M 344.96875 111.265625 L 347.273438 152.054688 L 348.117188 150.738281 L 347.285156 153.496094 L 346.148438 150.851562 L 347.132812 152.0625 L 344.824219 111.273438 Z "/>
<path style="fill-rule:nonzero;fill:rgb(0%,0%,0%);fill-opacity:1;stroke-width:0.75;stroke-linecap:round;stroke-linejoin:round;stroke:rgb(0%,0%,0%);stroke-opacity:1;stroke-miterlimit:10;" d="M 348.269531 108.074219 L 384.332031 112.855469 L 383.195312 111.785156 L 385.75 113.117188 L 382.9375 113.738281 L 384.3125 112.996094 L 348.25 108.21875 Z "/>
<path style="fill-rule:nonzero;fill:rgb(0%,0%,0%);fill-opacity:1;stroke-width:0.75;stroke-linecap:round;stroke-linejoin:round;stroke:rgb(0%,0%,0%);stroke-opacity:1;stroke-miterlimit:10;" d="M 348.210938 108.445312 L 372.691406 114.316406 L 371.675781 113.132812 L 374.074219 114.722656 L 371.214844 115.046875 L 372.660156 114.457031 L 348.175781 108.582031 Z "/>
<path style="fill-rule:nonzero;fill:rgb(0%,0%,0%);fill-opacity:1;stroke-width:0.75;stroke-linecap:round;stroke-linejoin:round;stroke:rgb(0%,0%,0%);stroke-opacity:1;stroke-miterlimit:10;" d="M 347.488281 109.941406 L 358.253906 119.03125 L 357.875 117.515625 L 359.304688 120.011719 L 356.601562 119.019531 L 358.160156 119.140625 L 347.398438 110.050781 Z "/>
<path style="fill-rule:nonzero;fill:rgb(0%,0%,0%);fill-opacity:1;stroke-width:0.75;stroke-linecap:round;stroke-linejoin:round;stroke:rgb(0%,0%,0%);stroke-opacity:1;stroke-miterlimit:10;" d="M 347.671875 109.695312 L 349.773438 111.183594 L 349.265625 109.703125 L 350.90625 112.074219 L 348.128906 111.3125 L 349.6875 111.300781 L 347.589844 109.8125 Z "/>
<path style="fill-rule:nonzero;fill:rgb(0%,0%,0%);fill-opacity:1;stroke-width:0.75;stroke-linecap:round;stroke-linejoin:round;stroke:rgb(0%,0%,0%);stroke-opacity:1;stroke-miterlimit:10;" d="M 348.148438 106.664062 L 365.949219 101.851562 L 364.488281 101.300781 L 367.355469 101.546875 L 365 103.203125 L 365.984375 101.992188 L 348.1875 106.804688 Z "/>
<path style="fill-rule:nonzero;fill:rgb(0%,0%,0%);fill-opacity:1;stroke-width:0.75;stroke-linecap:round;stroke-linejoin:round;stroke:rgb(0%,0%,0%);stroke-opacity:1;stroke-miterlimit:10;" d="M 347.054688 110.390625 L 361.617188 127.828125 L 361.507812 126.269531 L 362.484375 128.980469 L 359.996094 127.535156 L 361.507812 127.921875 L 346.945312 110.484375 Z "/>
<path style="fill-rule:nonzero;fill:rgb(0%,0%,0%);fill-opacity:1;stroke-width:0.75;stroke-linecap:round;stroke-linejoin:round;stroke:rgb(0%,0%,0%);stroke-opacity:1;stroke-miterlimit:10;" d="M 367.296875 144.21875 L 366.066406 157.441406 L 367.09375 156.265625 L 365.863281 158.867188 L 365.132812 156.082031 L 365.921875 157.425781 L 367.152344 144.207031 Z "/>
<path style="fill-rule:nonzero;fill:rgb(0%,0%,0%);fill-opacity:1;stroke-width:0.75;stroke-linecap:round;stroke-linejoin:round;stroke:rgb(0%,0%,0%);stroke-opacity:1;stroke-miterlimit:10;" d="M 374.09375 129.460938 L 385.898438 117.699219 L 384.359375 117.945312 L 386.96875 116.734375 L 385.75 119.339844 L 386 117.800781 L 374.195312 129.5625 Z "/>
<path style="fill-rule:nonzero;fill:rgb(0%,0%,0%);fill-opacity:1;stroke-width:0.75;stroke-linecap:round;stroke-linejoin:round;stroke:rgb(0%,0%,0%);stroke-opacity:1;stroke-miterlimit:10;" d="M 365.007812 127.515625 L 366.097656 130.519531 L 365.671875 132.023438 L 365.675781 129.144531 L 367.523438 131.351562 L 366.234375 130.472656 L 365.140625 127.464844 Z "/>
<path style="fill-rule:nonzero;fill:rgb(0%,0%,0%);fill-opacity:1;stroke-width:0.75;stroke-linecap:round;stroke-linejoin:round;stroke:rgb(0%,0%,0%);stroke-opacity:1;stroke-miterlimit:10;" d="M 363.441406 128.285156 L 359.316406 121.574219 L 359.199219 123.128906 L 358.621094 120.308594 L 360.878906 122.097656 L 359.4375 121.496094 L 363.5625 128.210938 Z "/>
<path style="fill-rule:nonzero;fill:rgb(0%,0%,0%);fill-opacity:1;stroke-width:0.75;stroke-linecap:round;stroke-linejoin:round;stroke:rgb(0%,0%,0%);stroke-opacity:1;stroke-miterlimit:10;" d="M 369.128906 127.042969 L 371.863281 107.167969 L 370.789062 108.296875 L 372.132812 105.75 L 372.738281 108.566406 L 372.007812 107.1875 L 369.273438 127.0625 Z "/>
<path style="fill-rule:nonzero;fill:rgb(0%,0%,0%);fill-opacity:1;stroke-width:0.75;stroke-linecap:round;stroke-linejoin:round;stroke:rgb(0%,0%,0%);stroke-opacity:1;stroke-miterlimit:10;" d="M 301.894531 101.683594 L 339.710938 106.914062 L 338.582031 105.835938 L 341.125 107.179688 L 338.3125 107.785156 L 339.691406 107.054688 L 301.875 101.824219 Z "/>
<path style="fill-rule:nonzero;fill:rgb(0%,0%,0%);fill-opacity:1;stroke-width:0.75;stroke-linecap:round;stroke-linejoin:round;stroke:rgb(0%,0%,0%);stroke-opacity:1;stroke-miterlimit:10;" d="M 300.460938 101.796875 L 267.65625 104.992188 L 269.003906 105.777344 L 266.214844 105.058594 L 268.8125 103.816406 L 267.640625 104.847656 L 300.449219 101.652344 Z "/>
<path style="fill-rule:nonzero;fill:rgb(0%,0%,0%);fill-opacity:1;stroke-width:0.75;stroke-linecap:round;stroke-linejoin:round;stroke:rgb(0%,0%,0%);stroke-opacity:1;stroke-miterlimit:10;" d="M 329.515625 128.425781 L 343.335938 132.007812 L 342.339844 130.804688 L 344.710938 132.4375 L 341.84375 132.710938 L 343.300781 132.148438 L 329.476562 128.566406 Z "/>
<path style="fill-rule:nonzero;fill:rgb(0%,0%,0%);fill-opacity:1;stroke-width:0.75;stroke-linecap:round;stroke-linejoin:round;stroke:rgb(0%,0%,0%);stroke-opacity:1;stroke-miterlimit:10;" d="M 329.308594 128.925781 L 356.207031 148.535156 L 355.71875 147.050781 L 357.328125 149.441406 L 354.558594 148.640625 L 356.121094 148.652344 L 329.222656 129.039062 Z "/>
<path style="fill-rule:nonzero;fill:rgb(0%,0%,0%);fill-opacity:1;stroke-width:0.75;stroke-linecap:round;stroke-linejoin:round;stroke:rgb(0%,0%,0%);stroke-opacity:1;stroke-miterlimit:10;" d="M 329.378906 127.464844 L 349.042969 118.359375 L 347.511719 118.0625 L 350.378906 117.820312 L 348.339844 119.851562 L 349.105469 118.492188 L 329.4375 127.59375 Z "/>
<path style="fill-rule:nonzero;fill:rgb(0%,0%,0%);fill-opacity:1;stroke-width:0.75;stroke-linecap:round;stroke-linejoin:round;stroke:rgb(0%,0%,0%);stroke-opacity:1;stroke-miterlimit:10;" d="M 329.53125 128.328125 L 358.128906 133.683594 L 357.054688 132.554688 L 359.53125 134.019531 L 356.691406 134.488281 L 358.101562 133.824219 L 329.503906 128.46875 Z "/>
<path style="fill-rule:nonzero;fill:rgb(0%,0%,0%);fill-opacity:1;stroke-width:0.75;stroke-linecap:round;stroke-linejoin:round;stroke:rgb(0%,0%,0%);stroke-opacity:1;stroke-miterlimit:10;" d="M 327.023438 127.175781 L 302.660156 103.21875 L 302.925781 104.757812 L 301.683594 102.160156 L 304.304688 103.355469 L 302.761719 103.117188 L 327.125 127.074219 Z "/>
<path style="fill-rule:nonzero;fill:rgb(0%,0%,0%);fill-opacity:1;stroke-width:0.75;stroke-linecap:round;stroke-linejoin:round;stroke:rgb(0%,0%,0%);stroke-opacity:1;stroke-miterlimit:10;" d="M 264.179688 106.507812 L 251.777344 130.226562 L 253.175781 129.527344 L 251.046875 131.46875 L 251.429688 128.617188 L 251.652344 130.160156 L 264.050781 106.441406 Z "/>
<path style="fill-rule:nonzero;fill:rgb(0%,0%,0%);fill-opacity:1;stroke-width:0.75;stroke-linecap:round;stroke-linejoin:round;stroke:rgb(0%,0%,0%);stroke-opacity:1;stroke-miterlimit:10;" d="M 250.984375 131.4375 L 263.382812 107.71875 L 261.988281 108.417969 L 264.113281 106.476562 L 263.734375 109.332031 L 263.511719 107.785156 L 251.113281 131.503906 Z "/>
<path style="fill-rule:nonzero;fill:rgb(0%,0%,0%);fill-opacity:1;stroke-width:0.75;stroke-linecap:round;stroke-linejoin:round;stroke:rgb(0%,0%,0%);stroke-opacity:1;stroke-miterlimit:10;" d="M 365.394531 157.570312 L 359.078125 163.886719 L 365.394531 170.203125 L 371.710938 163.886719 Z "/>
<path style="fill-rule:nonzero;fill:rgb(0%,0%,0%);fill-opacity:1;stroke-width:0.75;stroke-linecap:round;stroke-linejoin:round;stroke:rgb(0%,0%,0%);stroke-opacity:1;stroke-miterlimit:10;" d="M 383.878906 131.714844 L 375.757812 139.835938 L 383.878906 147.957031 L 392 139.835938 Z "/>
<path style="fill-rule:nonzero;fill:rgb(0%,0%,0%);fill-opacity:1;stroke-width:0.75;stroke-linecap:round;stroke-linejoin:round;stroke:rgb(0%,0%,0%);stroke-opacity:1;stroke-miterlimit:10;" d="M 349.589844 127.386719 L 343.273438 133.703125 L 349.589844 140.019531 L 355.90625 133.703125 Z "/>
<path style="fill-rule:nonzero;fill:rgb(0%,0%,0%);fill-opacity:1;stroke-width:0.75;stroke-linecap:round;stroke-linejoin:round;stroke:rgb(0%,0%,0%);stroke-opacity:1;stroke-miterlimit:10;" d="M 347.449219 152.761719 L 343.835938 156.371094 L 347.449219 159.980469 L 351.058594 156.371094 Z "/>
<path style="fill-rule:nonzero;fill:rgb(0%,0%,0%);fill-opacity:1;stroke-width:0.75;stroke-linecap:round;stroke-linejoin:round;stroke:rgb(0%,0%,0%);stroke-opacity:1;stroke-miterlimit:10;" d="M 390.085938 150.554688 L 387.378906 153.261719 L 390.085938 155.96875 L 392.792969 153.261719 Z "/>
<path style="fill-rule:nonzero;fill:rgb(0%,0%,0%);fill-opacity:1;stroke-width:0.75;stroke-linecap:round;stroke-linejoin:round;stroke:rgb(0%,0%,0%);stroke-opacity:1;stroke-miterlimit:10;" d="M 366.40625 151.777344 L 366.289062 151.15625 L 366.089844 150.550781 L 365.820312 149.980469 L 365.480469 149.445312 L 365.078125 148.957031 L 364.617188 148.523438 L 364.105469 148.148438 L 363.546875 147.84375 L 362.957031 147.609375 L 362.34375 147.453125 L 361.714844 147.375 L 361.082031 147.375 L 360.453125 147.453125 L 359.839844 147.609375 L 359.25 147.84375 L 358.695312 148.148438 L 358.183594 148.523438 L 357.71875 148.957031 L 357.316406 149.445312 L 356.976562 149.980469 L 356.707031 150.550781 L 356.511719 151.15625 L 356.394531 151.777344 L 356.351562 152.410156 L 356.394531 153.042969 L 356.511719 153.664062 L 356.707031 154.269531 L 356.976562 154.839844 L 357.316406 155.375 L 357.71875 155.863281 L 358.183594 156.296875 L 358.695312 156.671875 L 359.25 156.976562 L 359.839844 157.210938 L 360.453125 157.367188 L 361.082031 157.445312 L 361.714844 157.445312 L 362.34375 157.367188 L 362.957031 157.210938 L 363.546875 156.976562 L 364.105469 156.671875 L 364.617188 156.296875 L 365.078125 155.863281 L 365.480469 155.375 L 365.820312 154.839844 L 366.089844 154.269531 L 366.289062 153.664062 L 366.40625 153.042969 L 366.445312 152.410156 Z "/>
<path style="fill-rule:nonzero;fill:rgb(0%,0%,0%);fill-opacity:1;stroke-width:0.75;stroke-linecap:round;stroke-linejoin:round;stroke:rgb(0%,0%,0%);stroke-opacity:1;stroke-miterlimit:10;" d="M 388.089844 169.945312 L 384.480469 173.554688 L 388.089844 177.164062 L 391.699219 173.554688 Z "/>
<path style="fill-rule:nonzero;fill:rgb(0%,80.392157%,0%);fill-opacity:1;stroke-width:0.75;stroke-linecap:round;stroke-linejoin:round;stroke:rgb(0%,0%,0%);stroke-opacity:1;stroke-miterlimit:10;" d="M 394.324219 113.140625 L 394.222656 112.609375 L 394.054688 112.089844 L 393.820312 111.597656 L 393.53125 111.140625 L 393.183594 110.722656 L 392.789062 110.351562 L 392.347656 110.03125 L 391.871094 109.769531 L 391.367188 109.570312 L 390.839844 109.433594 L 390.300781 109.367188 L 389.757812 109.367188 L 389.21875 109.433594 L 388.695312 109.570312 L 388.1875 109.769531 L 387.714844 110.03125 L 387.273438 110.351562 L 386.878906 110.722656 L 386.53125 111.140625 L 386.242188 111.597656 L 386.007812 112.089844 L 385.839844 112.609375 L 385.738281 113.140625 L 385.707031 113.683594 L 385.738281 114.226562 L 385.839844 114.757812 L 386.007812 115.277344 L 386.242188 115.765625 L 386.53125 116.226562 L 386.878906 116.644531 L 387.273438 117.015625 L 387.714844 117.335938 L 388.1875 117.597656 L 388.695312 117.796875 L 389.21875 117.933594 L 389.757812 118 L 390.300781 118 L 390.839844 117.933594 L 391.367188 117.796875 L 391.871094 117.597656 L 392.347656 117.335938 L 392.789062 117.015625 L 393.183594 116.644531 L 393.53125 116.226562 L 393.820312 115.765625 L 394.054688 115.277344 L 394.222656 114.757812 L 394.324219 114.226562 L 394.355469 113.683594 Z "/>
<path style="fill-rule:nonzero;fill:rgb(0%,80.392157%,0%);fill-opacity:1;stroke-width:0.75;stroke-linecap:round;stroke-linejoin:round;stroke:rgb(0%,0%,0%);stroke-opacity:1;stroke-miterlimit:10;" d="M 382.570312 115.1875 L 382.464844 114.652344 L 382.296875 114.136719 L 382.066406 113.644531 L 381.777344 113.1875 L 381.429688 112.765625 L 381.035156 112.394531 L 380.59375 112.074219 L 380.117188 111.816406 L 379.613281 111.613281 L 379.085938 111.480469 L 378.546875 111.410156 L 378.003906 111.410156 L 377.464844 111.480469 L 376.941406 111.613281 L 376.433594 111.816406 L 375.957031 112.074219 L 375.519531 112.394531 L 375.125 112.765625 L 374.777344 113.1875 L 374.484375 113.644531 L 374.253906 114.136719 L 374.085938 114.652344 L 373.984375 115.1875 L 373.949219 115.726562 L 373.984375 116.269531 L 374.085938 116.804688 L 374.253906 117.320312 L 374.484375 117.8125 L 374.777344 118.269531 L 375.125 118.691406 L 375.519531 119.0625 L 375.957031 119.378906 L 376.433594 119.640625 L 376.941406 119.84375 L 377.464844 119.976562 L 378.003906 120.046875 L 378.546875 120.046875 L 379.085938 119.976562 L 379.613281 119.84375 L 380.117188 119.640625 L 380.59375 119.378906 L 381.035156 119.0625 L 381.429688 118.691406 L 381.777344 118.269531 L 382.066406 117.8125 L 382.296875 117.320312 L 382.464844 116.804688 L 382.570312 116.269531 L 382.601562 115.726562 Z "/>
<path style="fill-rule:nonzero;fill:rgb(0%,80.392157%,0%);fill-opacity:1;stroke-width:0.75;stroke-linecap:round;stroke-linejoin:round;stroke:rgb(0%,0%,0%);stroke-opacity:1;stroke-miterlimit:10;" d="M 369.429688 123.007812 L 369.292969 122.296875 L 369.070312 121.605469 L 368.761719 120.949219 L 368.375 120.339844 L 367.910156 119.78125 L 367.382812 119.285156 L 366.796875 118.859375 L 366.164062 118.511719 L 365.488281 118.242188 L 364.789062 118.0625 L 364.070312 117.972656 L 363.34375 117.972656 L 362.625 118.0625 L 361.925781 118.242188 L 361.25 118.511719 L 360.617188 118.859375 L 360.03125 119.285156 L 359.503906 119.78125 L 359.042969 120.339844 L 358.652344 120.949219 L 358.34375 121.605469 L 358.121094 122.296875 L 357.984375 123.007812 L 357.941406 123.730469 L 357.984375 124.453125 L 358.121094 125.164062 L 358.34375 125.851562 L 358.652344 126.507812 L 359.042969 127.121094 L 359.503906 127.675781 L 360.03125 128.171875 L 360.617188 128.597656 L 361.25 128.949219 L 361.925781 129.214844 L 362.625 129.394531 L 363.34375 129.484375 L 364.070312 129.484375 L 364.789062 129.394531 L 365.488281 129.214844 L 366.164062 128.949219 L 366.796875 128.597656 L 367.382812 128.171875 L 367.910156 127.675781 L 368.375 127.121094 L 368.761719 126.507812 L 369.070312 125.851562 L 369.292969 125.164062 L 369.429688 124.453125 L 369.476562 123.730469 Z "/>
<path style="fill-rule:nonzero;fill:rgb(0%,80.392157%,0%);fill-opacity:1;stroke-width:0.75;stroke-linecap:round;stroke-linejoin:round;stroke:rgb(0%,0%,0%);stroke-opacity:1;stroke-miterlimit:10;" d="M 361.328125 114.675781 L 361.195312 113.964844 L 360.96875 113.277344 L 360.660156 112.621094 L 360.273438 112.011719 L 359.8125 111.453125 L 359.285156 110.957031 L 358.699219 110.53125 L 358.0625 110.179688 L 357.390625 109.914062 L 356.6875 109.734375 L 355.96875 109.644531 L 355.246094 109.644531 L 354.527344 109.734375 L 353.824219 109.914062 L 353.152344 110.179688 L 352.515625 110.53125 L 351.929688 110.957031 L 351.402344 111.453125 L 350.941406 112.011719 L 350.554688 112.621094 L 350.246094 113.277344 L 350.019531 113.964844 L 349.886719 114.675781 L 349.839844 115.398438 L 349.886719 116.121094 L 350.019531 116.835938 L 350.246094 117.523438 L 350.554688 118.179688 L 350.941406 118.789062 L 351.402344 119.347656 L 351.929688 119.84375 L 352.515625 120.269531 L 353.152344 120.617188 L 353.824219 120.886719 L 354.527344 121.066406 L 355.246094 121.15625 L 355.96875 121.15625 L 356.6875 121.066406 L 357.390625 120.886719 L 358.0625 120.617188 L 358.699219 120.269531 L 359.285156 119.84375 L 359.8125 119.347656 L 360.273438 118.789062 L 360.660156 118.179688 L 360.96875 117.523438 L 361.195312 116.835938 L 361.328125 116.121094 L 361.375 115.398438 Z "/>
<path style="fill-rule:nonzero;fill:rgb(0%,80.392157%,0%);fill-opacity:1;stroke-width:0.75;stroke-linecap:round;stroke-linejoin:round;stroke:rgb(0%,0%,0%);stroke-opacity:1;stroke-miterlimit:10;" d="M 378.640625 99.320312 L 378.503906 98.609375 L 378.28125 97.921875 L 377.972656 97.265625 L 377.582031 96.652344 L 377.121094 96.09375 L 376.59375 95.597656 L 376.007812 95.171875 L 375.371094 94.824219 L 374.699219 94.558594 L 373.996094 94.378906 L 373.28125 94.289062 L 372.554688 94.289062 L 371.835938 94.378906 L 371.136719 94.558594 L 370.460938 94.824219 L 369.828125 95.171875 L 369.242188 95.597656 L 368.714844 96.09375 L 368.25 96.652344 L 367.863281 97.265625 L 367.554688 97.921875 L 367.332031 98.609375 L 367.195312 99.320312 L 367.148438 100.042969 L 367.195312 100.765625 L 367.332031 101.476562 L 367.554688 102.167969 L 367.863281 102.820312 L 368.25 103.433594 L 368.714844 103.992188 L 369.242188 104.488281 L 369.828125 104.914062 L 370.460938 105.261719 L 371.136719 105.527344 L 371.835938 105.707031 L 372.554688 105.800781 L 373.28125 105.800781 L 373.996094 105.707031 L 374.699219 105.527344 L 375.371094 105.261719 L 376.007812 104.914062 L 376.59375 104.488281 L 377.121094 103.992188 L 377.582031 103.433594 L 377.972656 102.820312 L 378.28125 102.167969 L 378.503906 101.476562 L 378.640625 100.765625 L 378.683594 100.042969 Z "/>
<path style="fill-rule:nonzero;fill:rgb(0%,80.392157%,0%);fill-opacity:1;stroke-width:0.75;stroke-linecap:round;stroke-linejoin:round;stroke:rgb(0%,0%,0%);stroke-opacity:1;stroke-miterlimit:10;" d="M 348.269531 107.222656 L 348.183594 106.777344 L 348.042969 106.347656 L 347.851562 105.9375 L 347.609375 105.554688 L 347.320312 105.207031 L 346.992188 104.898438 L 346.625 104.628906 L 346.226562 104.414062 L 345.804688 104.246094 L 345.367188 104.132812 L 344.917969 104.078125 L 344.464844 104.078125 L 344.015625 104.132812 L 343.578125 104.246094 L 343.15625 104.414062 L 342.761719 104.628906 L 342.394531 104.898438 L 342.066406 105.207031 L 341.777344 105.554688 L 341.535156 105.9375 L 341.339844 106.347656 L 341.199219 106.777344 L 341.117188 107.222656 L 341.085938 107.675781 L 341.117188 108.125 L 341.199219 108.570312 L 341.339844 109 L 341.535156 109.410156 L 341.777344 109.792969 L 342.066406 110.140625 L 342.394531 110.453125 L 342.761719 110.71875 L 343.15625 110.9375 L 343.578125 111.101562 L 344.015625 111.214844 L 344.464844 111.273438 L 344.917969 111.273438 L 345.367188 111.214844 L 345.804688 111.101562 L 346.226562 110.9375 L 346.625 110.71875 L 346.992188 110.453125 L 347.320312 110.140625 L 347.609375 109.792969 L 347.851562 109.410156 L 348.042969 109 L 348.183594 108.570312 L 348.269531 108.125 L 348.296875 107.675781 Z "/>
<path style="fill-rule:nonzero;fill:rgb(0%,80.392157%,0%);fill-opacity:1;stroke-width:0.75;stroke-linecap:round;stroke-linejoin:round;stroke:rgb(0%,0%,0%);stroke-opacity:1;stroke-miterlimit:10;" d="M 376.605469 134.527344 L 376.402344 133.460938 L 376.066406 132.425781 L 375.605469 131.441406 L 375.023438 130.523438 L 374.332031 129.6875 L 373.539062 128.945312 L 372.660156 128.304688 L 371.707031 127.78125 L 370.699219 127.382812 L 369.644531 127.113281 L 368.566406 126.976562 L 367.480469 126.976562 L 366.402344 127.113281 L 365.351562 127.382812 L 364.339844 127.78125 L 363.386719 128.304688 L 362.507812 128.945312 L 361.71875 129.6875 L 361.023438 130.523438 L 360.441406 131.441406 L 359.980469 132.425781 L 359.644531 133.460938 L 359.441406 134.527344 L 359.371094 135.609375 L 359.441406 136.695312 L 359.644531 137.761719 L 359.980469 138.796875 L 360.441406 139.777344 L 361.023438 140.695312 L 361.71875 141.53125 L 362.507812 142.277344 L 363.386719 142.914062 L 364.339844 143.4375 L 365.351562 143.839844 L 366.402344 144.109375 L 367.480469 144.246094 L 368.566406 144.246094 L 369.644531 144.109375 L 370.699219 143.839844 L 371.707031 143.4375 L 372.660156 142.914062 L 373.539062 142.277344 L 374.332031 141.53125 L 375.023438 140.695312 L 375.605469 139.777344 L 376.066406 138.796875 L 376.402344 137.761719 L 376.605469 136.695312 L 376.675781 135.609375 Z "/>
<path style="fill-rule:nonzero;fill:rgb(100%,0%,0%);fill-opacity:1;stroke-width:0.75;stroke-linecap:round;stroke-linejoin:round;stroke:rgb(0%,0%,0%);stroke-opacity:1;stroke-miterlimit:10;" d="M 301.886719 101.5625 L 301.871094 101.476562 L 301.84375 101.390625 L 301.804688 101.308594 L 301.753906 101.230469 L 301.699219 101.160156 L 301.632812 101.097656 L 301.558594 101.046875 L 301.480469 101.003906 L 301.394531 100.96875 L 301.308594 100.945312 L 301.21875 100.933594 L 301.125 100.933594 L 301.035156 100.945312 L 300.949219 100.96875 L 300.863281 101.003906 L 300.785156 101.046875 L 300.710938 101.097656 L 300.644531 101.160156 L 300.589844 101.230469 L 300.539062 101.308594 L 300.5 101.390625 L 300.472656 101.476562 L 300.457031 101.5625 L 300.449219 101.65625 L 300.457031 101.746094 L 300.472656 101.832031 L 300.5 101.921875 L 300.539062 102 L 300.589844 102.078125 L 300.644531 102.148438 L 300.710938 102.210938 L 300.785156 102.261719 L 300.863281 102.308594 L 300.949219 102.339844 L 301.035156 102.363281 L 301.125 102.375 L 301.21875 102.375 L 301.308594 102.363281 L 301.394531 102.339844 L 301.480469 102.308594 L 301.558594 102.261719 L 301.632812 102.210938 L 301.699219 102.148438 L 301.753906 102.078125 L 301.804688 102 L 301.84375 101.921875 L 301.871094 101.832031 L 301.886719 101.746094 L 301.894531 101.65625 Z "/>
<path style="fill-rule:nonzero;fill:rgb(100%,0%,0%);fill-opacity:1;stroke-width:0.75;stroke-linecap:round;stroke-linejoin:round;stroke:rgb(0%,0%,0%);stroke-opacity:1;stroke-miterlimit:10;" d="M 329.53125 127.953125 L 329.5 127.777344 L 329.441406 127.605469 L 329.367188 127.441406 L 329.269531 127.285156 L 329.152344 127.148438 L 329.019531 127.023438 L 328.875 126.917969 L 328.714844 126.828125 L 328.546875 126.761719 L 328.371094 126.71875 L 328.191406 126.695312 L 328.011719 126.695312 L 327.832031 126.71875 L 327.65625 126.761719 L 327.488281 126.828125 L 327.328125 126.917969 L 327.183594 127.023438 L 327.050781 127.148438 L 326.933594 127.285156 L 326.839844 127.441406 L 326.761719 127.605469 L 326.707031 127.777344 L 326.671875 127.953125 L 326.660156 128.132812 L 326.671875 128.316406 L 326.707031 128.492188 L 326.761719 128.664062 L 326.839844 128.828125 L 326.933594 128.980469 L 327.050781 129.121094 L 327.183594 129.246094 L 327.328125 129.351562 L 327.488281 129.4375 L 327.65625 129.503906 L 327.832031 129.550781 L 328.011719 129.574219 L 328.191406 129.574219 L 328.371094 129.550781 L 328.546875 129.503906 L 328.714844 129.4375 L 328.875 129.351562 L 329.019531 129.246094 L 329.152344 129.121094 L 329.269531 128.980469 L 329.367188 128.828125 L 329.441406 128.664062 L 329.5 128.492188 L 329.53125 128.316406 L 329.542969 128.132812 Z "/>
<path style="fill-rule:nonzero;fill:rgb(100%,0%,0%);fill-opacity:1;stroke-width:0.75;stroke-linecap:round;stroke-linejoin:round;stroke:rgb(0%,0%,0%);stroke-opacity:1;stroke-miterlimit:10;" d="M 266.210938 105.019531 L 266.179688 104.839844 L 266.121094 104.667969 L 266.046875 104.503906 L 265.949219 104.351562 L 265.832031 104.210938 L 265.699219 104.089844 L 265.554688 103.980469 L 265.394531 103.894531 L 265.226562 103.828125 L 265.050781 103.785156 L 264.871094 103.761719 L 264.691406 103.761719 L 264.511719 103.785156 L 264.335938 103.828125 L 264.167969 103.894531 L 264.007812 103.980469 L 263.863281 104.089844 L 263.730469 104.210938 L 263.613281 104.351562 L 263.519531 104.503906 L 263.441406 104.667969 L 263.386719 104.839844 L 263.351562 105.019531 L 263.339844 105.199219 L 263.351562 105.378906 L 263.386719 105.558594 L 263.441406 105.730469 L 263.519531 105.894531 L 263.613281 106.046875 L 263.730469 106.1875 L 263.863281 106.3125 L 264.007812 106.417969 L 264.167969 106.503906 L 264.335938 106.570312 L 264.511719 106.617188 L 264.691406 106.640625 L 264.871094 106.640625 L 265.050781 106.617188 L 265.226562 106.570312 L 265.394531 106.503906 L 265.554688 106.417969 L 265.699219 106.3125 L 265.832031 106.1875 L 265.949219 106.046875 L 266.046875 105.894531 L 266.121094 105.730469 L 266.179688 105.558594 L 266.210938 105.378906 L 266.222656 105.199219 Z "/>
<path style="fill-rule:nonzero;fill:rgb(100%,0%,0%);fill-opacity:1;stroke-width:0.75;stroke-linecap:round;stroke-linejoin:round;stroke:rgb(0%,0%,0%);stroke-opacity:1;stroke-miterlimit:10;" d="M 251.429688 132.019531 L 251.414062 131.929688 L 251.382812 131.84375 L 251.347656 131.761719 L 251.296875 131.683594 L 251.238281 131.613281 L 251.171875 131.554688 L 251.101562 131.5 L 251.019531 131.457031 L 250.9375 131.421875 L 250.847656 131.402344 L 250.757812 131.390625 L 250.667969 131.390625 L 250.578125 131.402344 L 250.492188 131.421875 L 250.40625 131.457031 L 250.328125 131.5 L 250.253906 131.554688 L 250.1875 131.613281 L 250.128906 131.683594 L 250.082031 131.761719 L 250.042969 131.84375 L 250.015625 131.929688 L 250 132.019531 L 249.992188 132.109375 L 250 132.199219 L 250.015625 132.289062 L 250.042969 132.375 L 250.082031 132.457031 L 250.128906 132.53125 L 250.1875 132.601562 L 250.253906 132.664062 L 250.328125 132.71875 L 250.40625 132.761719 L 250.492188 132.792969 L 250.578125 132.816406 L 250.667969 132.828125 L 250.757812 132.828125 L 250.847656 132.816406 L 250.9375 132.792969 L 251.019531 132.761719 L 251.101562 132.71875 L 251.171875 132.664062 L 251.238281 132.601562 L 251.296875 132.53125 L 251.347656 132.457031 L 251.382812 132.375 L 251.414062 132.289062 L 251.429688 132.199219 L 251.433594 132.109375 Z "/>
</g>
</svg>
