<?xml version="1.0" encoding="UTF-8"?>
<svg xmlns="http://www.w3.org/2000/svg" xmlns:xlink="http://www.w3.org/1999/xlink" width="612pt" height="288pt" viewBox="0 0 612 288" version="1.1">
<g id="surface141">
<rect x="0" y="0" width="612" height="288" style="fill:rgb(100%,100%,100%);fill-opacity:1;stroke:none;"/>
<path style="fill-rule:nonzero;fill:rgb(0%,0%,0%);fill-opacity:1;stroke-width:0.75;stroke-linecap:round;stroke-linejoin:round;stroke:rgb(0%,0%,0%);stroke-opacity:1;stroke-miterlimit:10;" d="M 252.644531 122.191406 L 274.773438 126.757812 L 273.71875 125.609375 L 276.167969 127.117188 L 273.320312 127.535156 L 274.742188 126.898438 L 252.613281 122.332031 Z "/>
<path style="fill-rule:nonzero;fill:rgb(0%,0%,0%);fill-opacity:1;stroke-width:0.75;stroke-linecap:round;stroke-linejoin:round;stroke:rgb(0%,0%,0%);stroke-opacity:1;stroke-miterlimit:10;" d="M 252.601562 121.269531 L 267.78125 117.761719 L 266.339844 117.15625 L 269.199219 117.507812 L 266.785156 119.074219 L 267.8125 117.902344 L 252.632812 121.410156 Z "/>
<path style="fill-rule:nonzero;fill:rgb(0%,0%,0%);fill-opacity:1;stroke-width:0.75;stroke-linecap:round;stroke-linejoin:round;stroke:rgb(0%,0%,0%);stroke-opacity:1;stroke-miterlimit:10;" d="M 251.910156 123.472656 L 270.023438 146.351562 L 269.953125 144.789062 L 270.859375 147.523438 L 268.410156 146.015625 L 269.910156 146.441406 L 251.796875 123.5625 Z "/>
<path style="fill-rule:nonzero;fill:rgb(0%,0%,0%);fill-opacity:1;stroke-width:0.75;stroke-linecap:round;stroke-linejoin:round;stroke:rgb(0%,0%,0%);stroke-opacity:1;stroke-miterlimit:10;" d="M 290.652344 94.496094 L 279.605469 124.207031 L 280.902344 123.335938 L 279.035156 125.53125 L 279.054688 122.652344 L 279.472656 124.15625 L 290.515625 94.445312 Z "/>
<path style="fill-rule:nonzero;fill:rgb(0%,0%,0%);fill-opacity:1;stroke-width:0.75;stroke-linecap:round;stroke-linejoin:round;stroke:rgb(0%,0%,0%);stroke-opacity:1;stroke-miterlimit:10;" d="M 290.828125 94.546875 L 286.046875 111.828125 L 287.261719 110.851562 L 285.59375 113.199219 L 285.363281 110.328125 L 285.90625 111.789062 L 290.691406 94.507812 Z "/>
<path style="fill-rule:nonzero;fill:rgb(0%,0%,0%);fill-opacity:1;stroke-width:0.75;stroke-linecap:round;stroke-linejoin:round;stroke:rgb(0%,0%,0%);stroke-opacity:1;stroke-miterlimit:10;" d="M 292.398438 94.328125 L 303.96875 116.53125 L 304.195312 114.988281 L 304.570312 117.84375 L 302.449219 115.898438 L 303.84375 116.597656 L 292.269531 94.394531 Z "/>
<path style="fill-rule:nonzero;fill:rgb(0%,0%,0%);fill-opacity:1;stroke-width:0.75;stroke-linecap:round;stroke-linejoin:round;stroke:rgb(0%,0%,0%);stroke-opacity:1;stroke-miterlimit:10;" d="M 278.96875 125.507812 L 290.015625 95.796875 L 288.71875 96.664062 L 290.582031 94.46875 L 290.5625 97.351562 L 290.148438 95.84375 L 279.105469 125.554688 Z "/>
<path style="fill-rule:nonzero;fill:rgb(0%,0%,0%);fill-opacity:1;stroke-width:0.75;stroke-linecap:round;stroke-linejoin:round;stroke:rgb(0%,0%,0%);stroke-opacity:1;stroke-miterlimit:10;" d="M 280.394531 127.09375 L 300.515625 123.410156 L 299.105469 122.738281 L 301.945312 123.222656 L 299.457031 124.675781 L 300.539062 123.550781 L 280.421875 127.238281 Z "/>
<path style="fill-rule:nonzero;fill:rgb(0%,0%,0%);fill-opacity:1;stroke-width:0.75;stroke-linecap:round;stroke-linejoin:round;stroke:rgb(0%,0%,0%);stroke-opacity:1;stroke-miterlimit:10;" d="M 278.703125 129.675781 L 283.652344 159.828125 L 284.351562 158.429688 L 283.816406 161.261719 L 282.40625 158.75 L 283.511719 159.851562 L 278.5625 129.699219 Z "/>
<path style="fill-rule:nonzero;fill:rgb(0%,0%,0%);fill-opacity:1;stroke-width:0.75;stroke-linecap:round;stroke-linejoin:round;stroke:rgb(0%,0%,0%);stroke-opacity:1;stroke-miterlimit:10;" d="M 279.324219 129.449219 L 287.972656 146.515625 L 288.214844 144.972656 L 288.5625 147.832031 L 286.457031 145.863281 L 287.847656 146.578125 L 279.195312 129.515625 Z "/>
<path style="fill-rule:nonzero;fill:rgb(0%,0%,0%);fill-opacity:1;stroke-width:0.75;stroke-linecap:round;stroke-linejoin:round;stroke:rgb(0%,0%,0%);stroke-opacity:1;stroke-miterlimit:10;" d="M 269.214844 117.578125 L 254.035156 121.085938 L 255.476562 121.6875 L 252.617188 121.339844 L 255.03125 119.769531 L 254.003906 120.945312 L 269.183594 117.4375 Z "/>
<path style="fill-rule:nonzero;fill:rgb(0%,0%,0%);fill-opacity:1;stroke-width:0.75;stroke-linecap:round;stroke-linejoin:round;stroke:rgb(0%,0%,0%);stroke-opacity:1;stroke-miterlimit:10;" d="M 270.726562 118.621094 L 271.722656 145.773438 L 272.585938 144.472656 L 271.703125 147.214844 L 270.617188 144.546875 L 271.578125 145.777344 L 270.582031 118.625 Z "/>
<path style="fill-rule:nonzero;fill:rgb(0%,0%,0%);fill-opacity:1;stroke-width:0.75;stroke-linecap:round;stroke-linejoin:round;stroke:rgb(0%,0%,0%);stroke-opacity:1;stroke-miterlimit:10;" d="M 271.742188 118.066406 L 294.929688 137.957031 L 294.5625 136.4375 L 295.976562 138.949219 L 293.28125 137.933594 L 294.835938 138.066406 L 271.648438 118.175781 Z "/>
<path style="fill-rule:nonzero;fill:rgb(0%,0%,0%);fill-opacity:1;stroke-width:0.75;stroke-linecap:round;stroke-linejoin:round;stroke:rgb(0%,0%,0%);stroke-opacity:1;stroke-miterlimit:10;" d="M 283.8125 114.949219 L 254.050781 121.160156 L 255.476562 121.796875 L 252.628906 121.382812 L 255.074219 119.867188 L 254.023438 121.019531 L 283.785156 114.808594 Z "/>
<path style="fill-rule:nonzero;fill:rgb(0%,0%,0%);fill-opacity:1;stroke-width:0.75;stroke-linecap:round;stroke-linejoin:round;stroke:rgb(0%,0%,0%);stroke-opacity:1;stroke-miterlimit:10;" d="M 285.523438 113.179688 L 290.304688 95.894531 L 289.089844 96.871094 L 290.761719 94.527344 L 290.988281 97.398438 L 290.445312 95.933594 L 285.660156 113.21875 Z "/>
<path style="fill-rule:nonzero;fill:rgb(0%,0%,0%);fill-opacity:1;stroke-width:0.75;stroke-linecap:round;stroke-linejoin:round;stroke:rgb(0%,0%,0%);stroke-opacity:1;stroke-miterlimit:10;" d="M 284.59375 115.890625 L 280.042969 124.414062 L 281.445312 123.726562 L 279.300781 125.648438 L 279.707031 122.800781 L 279.914062 124.347656 L 284.464844 115.820312 Z "/>
<path style="fill-rule:nonzero;fill:rgb(0%,0%,0%);fill-opacity:1;stroke-width:0.75;stroke-linecap:round;stroke-linejoin:round;stroke:rgb(0%,0%,0%);stroke-opacity:1;stroke-miterlimit:10;" d="M 286.589844 115 L 300.820312 120.070312 L 299.933594 118.785156 L 302.152344 120.621094 L 299.273438 120.640625 L 300.773438 120.207031 L 286.539062 115.136719 Z "/>
<path style="fill-rule:nonzero;fill:rgb(0%,0%,0%);fill-opacity:1;stroke-width:0.75;stroke-linecap:round;stroke-linejoin:round;stroke:rgb(0%,0%,0%);stroke-opacity:1;stroke-miterlimit:10;" d="M 285.945312 115.824219 L 296.839844 136.464844 L 297.054688 134.917969 L 297.449219 137.773438 L 295.3125 135.839844 L 296.710938 136.53125 L 285.816406 115.894531 Z "/>
<path style="fill-rule:nonzero;fill:rgb(0%,0%,0%);fill-opacity:1;stroke-width:0.75;stroke-linecap:round;stroke-linejoin:round;stroke:rgb(0%,0%,0%);stroke-opacity:1;stroke-miterlimit:10;" d="M 285.5 115.996094 L 290.132812 145.84375 L 290.839844 144.453125 L 290.28125 147.277344 L 288.894531 144.753906 L 289.988281 145.867188 L 285.359375 116.019531 Z "/>
<path style="fill-rule:nonzero;fill:rgb(0%,0%,0%);fill-opacity:1;stroke-width:0.75;stroke-linecap:round;stroke-linejoin:round;stroke:rgb(0%,0%,0%);stroke-opacity:1;stroke-miterlimit:10;" d="M 304.507812 117.875 L 292.9375 95.671875 L 292.710938 97.214844 L 292.335938 94.359375 L 294.457031 96.304688 L 293.0625 95.605469 L 304.636719 117.808594 Z "/>
<path style="fill-rule:nonzero;fill:rgb(0%,0%,0%);fill-opacity:1;stroke-width:0.75;stroke-linecap:round;stroke-linejoin:round;stroke:rgb(0%,0%,0%);stroke-opacity:1;stroke-miterlimit:10;" d="M 301.902344 121.679688 L 273.441406 117.65625 L 274.570312 118.738281 L 272.027344 117.382812 L 274.84375 116.789062 L 273.464844 117.515625 L 301.921875 121.535156 Z "/>
<path style="fill-rule:nonzero;fill:rgb(0%,0%,0%);fill-opacity:1;stroke-width:0.75;stroke-linecap:round;stroke-linejoin:round;stroke:rgb(0%,0%,0%);stroke-opacity:1;stroke-miterlimit:10;" d="M 302.128906 120.6875 L 287.898438 115.621094 L 288.785156 116.90625 L 286.566406 115.070312 L 289.445312 115.050781 L 287.945312 115.484375 L 302.175781 120.554688 Z "/>
<path style="fill-rule:nonzero;fill:rgb(0%,0%,0%);fill-opacity:1;stroke-width:0.75;stroke-linecap:round;stroke-linejoin:round;stroke:rgb(0%,0%,0%);stroke-opacity:1;stroke-miterlimit:10;" d="M 270.804688 147.570312 L 252.691406 124.691406 L 252.761719 126.25 L 251.855469 123.519531 L 254.304688 125.027344 L 252.804688 124.601562 L 270.917969 147.480469 Z "/>
<path style="fill-rule:nonzero;fill:rgb(0%,0%,0%);fill-opacity:1;stroke-width:0.75;stroke-linecap:round;stroke-linejoin:round;stroke:rgb(0%,0%,0%);stroke-opacity:1;stroke-miterlimit:10;" d="M 272.863281 147.730469 L 301.671875 126.140625 L 300.113281 126.171875 L 302.867188 125.335938 L 301.292969 127.746094 L 301.757812 126.257812 L 272.949219 147.847656 Z "/>
<path style="fill-rule:nonzero;fill:rgb(0%,0%,0%);fill-opacity:1;stroke-width:0.75;stroke-linecap:round;stroke-linejoin:round;stroke:rgb(0%,0%,0%);stroke-opacity:1;stroke-miterlimit:10;" d="M 272.453125 149.914062 L 286.144531 177.742188 L 286.402344 176.203125 L 286.714844 179.066406 L 284.636719 177.070312 L 286.015625 177.804688 L 272.324219 149.976562 Z "/>
<path style="fill-rule:nonzero;fill:rgb(0%,0%,0%);fill-opacity:1;stroke-width:0.75;stroke-linecap:round;stroke-linejoin:round;stroke:rgb(0%,0%,0%);stroke-opacity:1;stroke-miterlimit:10;" d="M 272.847656 149.59375 L 295.304688 171.015625 L 295.019531 169.484375 L 296.296875 172.0625 L 293.660156 170.90625 L 295.207031 171.121094 L 272.746094 149.699219 Z "/>
<path style="fill-rule:nonzero;fill:rgb(0%,0%,0%);fill-opacity:1;stroke-width:0.75;stroke-linecap:round;stroke-linejoin:round;stroke:rgb(0%,0%,0%);stroke-opacity:1;stroke-miterlimit:10;" d="M 296.699219 146.203125 L 295.734375 147.402344 L 297.238281 146.988281 L 294.773438 148.480469 L 295.703125 145.753906 L 295.621094 147.3125 L 296.585938 146.113281 Z "/>
<path style="fill-rule:nonzero;fill:rgb(0%,0%,0%);fill-opacity:1;stroke-width:0.75;stroke-linecap:round;stroke-linejoin:round;stroke:rgb(0%,0%,0%);stroke-opacity:1;stroke-miterlimit:10;" d="M 302.8125 146.273438 L 308.875 154.664062 L 308.871094 153.105469 L 309.660156 155.875 L 307.277344 154.257812 L 308.757812 154.75 L 302.695312 146.355469 Z "/>
<path style="fill-rule:nonzero;fill:rgb(0%,0%,0%);fill-opacity:1;stroke-width:0.75;stroke-linecap:round;stroke-linejoin:round;stroke:rgb(0%,0%,0%);stroke-opacity:1;stroke-miterlimit:10;" d="M 302.71875 146.339844 L 316.078125 165.71875 L 316.109375 164.15625 L 316.835938 166.945312 L 314.488281 165.277344 L 315.957031 165.800781 L 302.601562 146.421875 Z "/>
<path style="fill-rule:nonzero;fill:rgb(0%,0%,0%);fill-opacity:1;stroke-width:0.75;stroke-linecap:round;stroke-linejoin:round;stroke:rgb(0%,0%,0%);stroke-opacity:1;stroke-miterlimit:10;" d="M 286.824219 161.871094 L 296.1875 147.609375 L 294.726562 148.164062 L 297.035156 146.441406 L 296.375 149.246094 L 296.304688 147.6875 L 286.945312 161.949219 Z "/>
<path style="fill-rule:nonzero;fill:rgb(0%,0%,0%);fill-opacity:1;stroke-width:0.75;stroke-linecap:round;stroke-linejoin:round;stroke:rgb(0%,0%,0%);stroke-opacity:1;stroke-miterlimit:10;" d="M 286.472656 161.671875 L 287.730469 159.296875 L 286.332031 159.988281 L 288.46875 158.058594 L 288.074219 160.910156 L 287.859375 159.367188 L 286.601562 161.738281 Z "/>
<path style="fill-rule:nonzero;fill:rgb(0%,0%,0%);fill-opacity:1;stroke-width:0.75;stroke-linecap:round;stroke-linejoin:round;stroke:rgb(0%,0%,0%);stroke-opacity:1;stroke-miterlimit:10;" d="M 285.539062 169.722656 L 287.261719 177.363281 L 287.875 175.925781 L 287.511719 178.785156 L 285.953125 176.359375 L 287.125 177.394531 L 285.398438 169.753906 Z "/>
<path style="fill-rule:nonzero;fill:rgb(0%,0%,0%);fill-opacity:1;stroke-width:0.75;stroke-linecap:round;stroke-linejoin:round;stroke:rgb(0%,0%,0%);stroke-opacity:1;stroke-miterlimit:10;" d="M 288.691406 164.417969 L 306.855469 159.929688 L 305.410156 159.347656 L 308.273438 159.65625 L 305.882812 161.261719 L 306.890625 160.070312 L 288.726562 164.558594 Z "/>
<path style="fill-rule:nonzero;fill:rgb(0%,0%,0%);fill-opacity:1;stroke-width:0.75;stroke-linecap:round;stroke-linejoin:round;stroke:rgb(0%,0%,0%);stroke-opacity:1;stroke-miterlimit:10;" d="M 288.214844 167.757812 L 294.671875 171.808594 L 294.085938 170.363281 L 295.855469 172.636719 L 293.039062 172.03125 L 294.59375 171.929688 L 288.136719 167.878906 Z "/>
<path style="fill-rule:nonzero;fill:rgb(0%,0%,0%);fill-opacity:1;stroke-width:0.75;stroke-linecap:round;stroke-linejoin:round;stroke:rgb(0%,0%,0%);stroke-opacity:1;stroke-miterlimit:10;" d="M 288.792969 166.128906 L 313.304688 170.011719 L 312.199219 168.910156 L 314.71875 170.308594 L 311.890625 170.855469 L 313.285156 170.152344 L 288.773438 166.269531 Z "/>
<path style="fill-rule:nonzero;fill:rgb(0%,0%,0%);fill-opacity:1;stroke-width:0.75;stroke-linecap:round;stroke-linejoin:round;stroke:rgb(0%,0%,0%);stroke-opacity:1;stroke-miterlimit:10;" d="M 294.71875 148.433594 L 295.683594 147.234375 L 294.179688 147.648438 L 296.644531 146.15625 L 295.714844 148.882812 L 295.796875 147.324219 L 294.832031 148.527344 Z "/>
<path style="fill-rule:nonzero;fill:rgb(0%,0%,0%);fill-opacity:1;stroke-width:0.75;stroke-linecap:round;stroke-linejoin:round;stroke:rgb(0%,0%,0%);stroke-opacity:1;stroke-miterlimit:10;" d="M 288.53125 158.09375 L 287.277344 160.464844 L 288.675781 159.773438 L 286.539062 161.707031 L 286.933594 158.851562 L 287.148438 160.398438 L 288.40625 158.027344 Z "/>
<path style="fill-rule:nonzero;fill:rgb(0%,0%,0%);fill-opacity:1;stroke-width:0.75;stroke-linecap:round;stroke-linejoin:round;stroke:rgb(0%,0%,0%);stroke-opacity:1;stroke-miterlimit:10;" d="M 296.726562 154.464844 L 306.9375 157.351562 L 305.964844 156.128906 L 308.304688 157.8125 L 305.429688 158.023438 L 306.898438 157.492188 L 296.6875 154.605469 Z "/>
<path style="fill-rule:nonzero;fill:rgb(0%,0%,0%);fill-opacity:1;stroke-width:0.75;stroke-linecap:round;stroke-linejoin:round;stroke:rgb(0%,0%,0%);stroke-opacity:1;stroke-miterlimit:10;" d="M 296.066406 155.996094 L 314.265625 167.558594 L 313.683594 166.109375 L 315.441406 168.394531 L 312.628906 167.773438 L 314.1875 167.679688 L 295.988281 156.117188 Z "/>
<path style="fill-rule:nonzero;fill:rgb(0%,0%,0%);fill-opacity:1;stroke-width:0.75;stroke-linecap:round;stroke-linejoin:round;stroke:rgb(0%,0%,0%);stroke-opacity:1;stroke-miterlimit:10;" d="M 287.441406 178.800781 L 285.714844 171.15625 L 285.101562 172.59375 L 285.46875 169.738281 L 287.023438 172.160156 L 285.855469 171.125 L 287.582031 178.765625 Z "/>
<path style="fill-rule:nonzero;fill:rgb(0%,0%,0%);fill-opacity:1;stroke-width:0.75;stroke-linecap:round;stroke-linejoin:round;stroke:rgb(0%,0%,0%);stroke-opacity:1;stroke-miterlimit:10;" d="M 288.582031 178.703125 L 290.394531 160.128906 L 289.363281 161.300781 L 290.605469 158.703125 L 291.324219 161.492188 L 290.539062 160.140625 L 288.726562 178.71875 Z "/>
<path style="fill-rule:nonzero;fill:rgb(0%,0%,0%);fill-opacity:1;stroke-width:0.75;stroke-linecap:round;stroke-linejoin:round;stroke:rgb(0%,0%,0%);stroke-opacity:1;stroke-miterlimit:10;" d="M 291.167969 180.113281 L 294.792969 177.464844 L 293.230469 177.472656 L 295.996094 176.671875 L 294.394531 179.0625 L 294.875 177.578125 L 291.253906 180.230469 Z "/>
<path style="fill-rule:nonzero;fill:rgb(0%,0%,0%);fill-opacity:1;stroke-width:0.75;stroke-linecap:round;stroke-linejoin:round;stroke:rgb(0%,0%,0%);stroke-opacity:1;stroke-miterlimit:10;" d="M 291.671875 181.015625 L 313.566406 173.203125 L 312.066406 172.769531 L 314.949219 172.789062 L 312.730469 174.625 L 313.617188 173.339844 L 291.71875 181.152344 Z "/>
<path style="fill-rule:nonzero;fill:rgb(0%,0%,0%);fill-opacity:1;stroke-width:0.75;stroke-linecap:round;stroke-linejoin:round;stroke:rgb(0%,0%,0%);stroke-opacity:1;stroke-miterlimit:10;" d="M 311.21875 155.234375 L 307.6875 128.746094 L 306.949219 130.121094 L 307.566406 127.308594 L 308.902344 129.859375 L 307.828125 128.726562 L 311.363281 155.214844 Z "/>
<path style="fill-rule:nonzero;fill:rgb(0%,0%,0%);fill-opacity:1;stroke-width:0.75;stroke-linecap:round;stroke-linejoin:round;stroke:rgb(0%,0%,0%);stroke-opacity:1;stroke-miterlimit:10;" d="M 309.601562 155.917969 L 303.539062 147.523438 L 303.539062 149.085938 L 302.753906 146.316406 L 305.136719 147.933594 L 303.65625 147.441406 L 309.71875 155.832031 Z "/>
<path style="fill-rule:nonzero;fill:rgb(0%,0%,0%);fill-opacity:1;stroke-width:0.75;stroke-linecap:round;stroke-linejoin:round;stroke:rgb(0%,0%,0%);stroke-opacity:1;stroke-miterlimit:10;" d="M 308.289062 159.726562 L 290.125 164.210938 L 291.574219 164.792969 L 288.710938 164.488281 L 291.101562 162.882812 L 290.089844 164.070312 L 308.253906 159.585938 Z "/>
<path style="fill-rule:nonzero;fill:rgb(0%,0%,0%);fill-opacity:1;stroke-width:0.75;stroke-linecap:round;stroke-linejoin:round;stroke:rgb(0%,0%,0%);stroke-opacity:1;stroke-miterlimit:10;" d="M 308.285156 157.882812 L 298.074219 154.996094 L 299.042969 156.21875 L 296.707031 154.535156 L 299.582031 154.324219 L 298.113281 154.859375 L 308.324219 157.746094 Z "/>
<path style="fill-rule:nonzero;fill:rgb(0%,0%,0%);fill-opacity:1;stroke-width:0.75;stroke-linecap:round;stroke-linejoin:round;stroke:rgb(0%,0%,0%);stroke-opacity:1;stroke-miterlimit:10;" d="M 309.273438 161.390625 L 291.914062 178.777344 L 293.457031 178.527344 L 290.847656 179.746094 L 292.0625 177.136719 L 291.8125 178.675781 L 309.171875 161.289062 Z "/>
<path style="fill-rule:nonzero;fill:rgb(0%,0%,0%);fill-opacity:1;stroke-width:0.75;stroke-linecap:round;stroke-linejoin:round;stroke:rgb(0%,0%,0%);stroke-opacity:1;stroke-miterlimit:10;" d="M 309.546875 161.625 L 302.148438 170.691406 L 303.65625 170.285156 L 301.179688 171.757812 L 302.128906 169.039062 L 302.035156 170.597656 L 309.433594 161.535156 Z "/>
<path style="fill-rule:nonzero;fill:rgb(0%,0%,0%);fill-opacity:1;stroke-width:0.75;stroke-linecap:round;stroke-linejoin:round;stroke:rgb(0%,0%,0%);stroke-opacity:1;stroke-miterlimit:10;" d="M 313.777344 161.78125 L 316.246094 165.609375 L 316.328125 164.050781 L 316.964844 166.859375 L 314.671875 165.117188 L 316.125 165.6875 L 313.65625 161.859375 Z "/>
<path style="fill-rule:nonzero;fill:rgb(0%,0%,0%);fill-opacity:1;stroke-width:0.75;stroke-linecap:round;stroke-linejoin:round;stroke:rgb(0%,0%,0%);stroke-opacity:1;stroke-miterlimit:10;" d="M 298.929688 170.949219 L 299.550781 148.703125 L 298.601562 149.945312 L 299.660156 147.265625 L 300.570312 150 L 299.691406 148.707031 L 299.074219 170.953125 Z "/>
<path style="fill-rule:nonzero;fill:rgb(0%,0%,0%);fill-opacity:1;stroke-width:0.75;stroke-linecap:round;stroke-linejoin:round;stroke:rgb(0%,0%,0%);stroke-opacity:1;stroke-miterlimit:10;" d="M 295.816406 172.695312 L 289.355469 168.644531 L 289.945312 170.089844 L 288.175781 167.820312 L 290.992188 168.421875 L 289.433594 168.523438 L 295.890625 172.574219 Z "/>
<path style="fill-rule:nonzero;fill:rgb(0%,0%,0%);fill-opacity:1;stroke-width:0.75;stroke-linecap:round;stroke-linejoin:round;stroke:rgb(0%,0%,0%);stroke-opacity:1;stroke-miterlimit:10;" d="M 297.621094 171.183594 L 293.527344 159.769531 L 293.09375 161.269531 L 293.109375 158.390625 L 294.949219 160.605469 L 293.664062 159.722656 L 297.753906 171.136719 Z "/>
<path style="fill-rule:nonzero;fill:rgb(0%,0%,0%);fill-opacity:1;stroke-width:0.75;stroke-linecap:round;stroke-linejoin:round;stroke:rgb(0%,0%,0%);stroke-opacity:1;stroke-miterlimit:10;" d="M 296.039062 176.730469 L 292.414062 179.378906 L 293.976562 179.367188 L 291.210938 180.171875 L 292.8125 177.777344 L 292.332031 179.261719 L 295.953125 176.613281 Z "/>
<path style="fill-rule:nonzero;fill:rgb(0%,0%,0%);fill-opacity:1;stroke-width:0.75;stroke-linecap:round;stroke-linejoin:round;stroke:rgb(0%,0%,0%);stroke-opacity:1;stroke-miterlimit:10;" d="M 301.125 171.714844 L 308.523438 162.652344 L 307.015625 163.054688 L 309.492188 161.582031 L 308.542969 164.300781 L 308.636719 162.742188 L 301.234375 171.804688 Z "/>
<path style="fill-rule:nonzero;fill:rgb(0%,0%,0%);fill-opacity:1;stroke-width:0.75;stroke-linecap:round;stroke-linejoin:round;stroke:rgb(0%,0%,0%);stroke-opacity:1;stroke-miterlimit:10;" d="M 316.777344 166.984375 L 303.417969 147.605469 L 303.386719 149.167969 L 302.660156 146.378906 L 305.007812 148.046875 L 303.539062 147.523438 L 316.894531 166.90625 Z "/>
<path style="fill-rule:nonzero;fill:rgb(0%,0%,0%);fill-opacity:1;stroke-width:0.75;stroke-linecap:round;stroke-linejoin:round;stroke:rgb(0%,0%,0%);stroke-opacity:1;stroke-miterlimit:10;" d="M 314.707031 170.378906 L 290.195312 166.496094 L 291.300781 167.59375 L 288.78125 166.199219 L 291.609375 165.648438 L 290.214844 166.351562 L 314.726562 170.234375 Z "/>
<path style="fill-rule:nonzero;fill:rgb(0%,0%,0%);fill-opacity:1;stroke-width:0.75;stroke-linecap:round;stroke-linejoin:round;stroke:rgb(0%,0%,0%);stroke-opacity:1;stroke-miterlimit:10;" d="M 315.402344 168.453125 L 297.203125 156.890625 L 297.78125 158.339844 L 296.027344 156.058594 L 298.839844 156.679688 L 297.28125 156.769531 L 315.480469 168.332031 Z "/>
<path style="fill-rule:nonzero;fill:rgb(0%,0%,0%);fill-opacity:1;stroke-width:0.75;stroke-linecap:round;stroke-linejoin:round;stroke:rgb(0%,0%,0%);stroke-opacity:1;stroke-miterlimit:10;" d="M 314.972656 172.855469 L 293.074219 180.667969 L 294.574219 181.105469 L 291.695312 181.085938 L 293.914062 179.25 L 293.027344 180.535156 L 314.921875 172.722656 Z "/>
<path style="fill-rule:nonzero;fill:rgb(0%,0%,0%);fill-opacity:1;stroke-width:0.75;stroke-linecap:round;stroke-linejoin:round;stroke:rgb(0%,0%,0%);stroke-opacity:1;stroke-miterlimit:10;" d="M 316.90625 166.898438 L 314.4375 163.070312 L 314.355469 164.628906 L 313.71875 161.820312 L 316.011719 163.558594 L 314.558594 162.992188 L 317.027344 166.820312 Z "/>
<path style="fill-rule:nonzero;fill:rgb(0%,0%,0%);fill-opacity:1;stroke-width:0.75;stroke-linecap:round;stroke-linejoin:round;stroke:rgb(0%,0%,0%);stroke-opacity:1;stroke-miterlimit:10;" d="M 314.734375 171.992188 L 303.886719 173.792969 L 305.285156 174.488281 L 302.453125 173.957031 L 304.964844 172.542969 L 303.863281 173.652344 L 314.710938 171.851562 Z "/>
<path style="fill-rule:nonzero;fill:rgb(0%,0%,0%);fill-opacity:1;stroke-width:0.75;stroke-linecap:round;stroke-linejoin:round;stroke:rgb(0%,0%,0%);stroke-opacity:1;stroke-miterlimit:10;" d="M 341.941406 146.535156 L 312.195312 126.046875 L 312.722656 127.519531 L 311.050781 125.171875 L 313.839844 125.894531 L 312.277344 125.929688 L 342.023438 146.417969 Z "/>
<path style="fill-rule:nonzero;fill:rgb(0%,0%,0%);fill-opacity:1;stroke-width:0.75;stroke-linecap:round;stroke-linejoin:round;stroke:rgb(0%,0%,0%);stroke-opacity:1;stroke-miterlimit:10;" d="M 342.035156 146.523438 L 324.097656 166.339844 L 325.625 166.011719 L 323.078125 167.359375 L 324.164062 164.691406 L 323.992188 166.242188 L 341.929688 146.425781 Z "/>
<path style="fill-rule:nonzero;fill:rgb(0%,0%,0%);fill-opacity:1;stroke-width:0.75;stroke-linecap:round;stroke-linejoin:round;stroke:rgb(0%,0%,0%);stroke-opacity:1;stroke-miterlimit:10;" d="M 342.046875 146.445312 L 354.597656 172.054688 L 354.863281 170.515625 L 355.167969 173.378906 L 353.09375 171.382812 L 354.46875 172.117188 L 341.917969 146.507812 Z "/>
<path style="fill-rule:nonzero;fill:rgb(0%,0%,0%);fill-opacity:1;stroke-width:0.75;stroke-linecap:round;stroke-linejoin:round;stroke:rgb(0%,0%,0%);stroke-opacity:1;stroke-miterlimit:10;" d="M 331.605469 91.351562 L 310.988281 117.285156 L 312.492188 116.863281 L 310.039062 118.367188 L 310.949219 115.636719 L 310.875 117.195312 L 331.496094 91.261719 Z "/>
<path style="fill-rule:nonzero;fill:rgb(0%,0%,0%);fill-opacity:1;stroke-width:0.75;stroke-linecap:round;stroke-linejoin:round;stroke:rgb(0%,0%,0%);stroke-opacity:1;stroke-miterlimit:10;" d="M 354.761719 174.039062 L 326.148438 171.695312 L 327.335938 172.707031 L 324.71875 171.507812 L 327.496094 170.746094 L 326.160156 171.550781 L 354.773438 173.894531 Z "/>
<path style="fill-rule:nonzero;fill:rgb(0%,0%,0%);fill-opacity:1;stroke-width:0.75;stroke-linecap:round;stroke-linejoin:round;stroke:rgb(0%,0%,0%);stroke-opacity:1;stroke-miterlimit:10;" d="M 250.511719 119.117188 L 247.804688 121.824219 L 250.511719 124.53125 L 253.21875 121.824219 Z "/>
<path style="fill-rule:nonzero;fill:rgb(0%,0%,0%);fill-opacity:1;stroke-width:0.75;stroke-linecap:round;stroke-linejoin:round;stroke:rgb(0%,0%,0%);stroke-opacity:1;stroke-miterlimit:10;" d="M 291.335938 89.738281 L 288.628906 92.445312 L 291.335938 95.152344 L 294.042969 92.445312 Z "/>
<path style="fill-rule:nonzero;fill:rgb(0%,0%,0%);fill-opacity:1;stroke-width:0.75;stroke-linecap:round;stroke-linejoin:round;stroke:rgb(0%,0%,0%);stroke-opacity:1;stroke-miterlimit:10;" d="M 278.285156 124.847656 L 275.578125 127.554688 L 278.285156 130.261719 L 280.992188 127.554688 Z "/>
<path style="fill-rule:nonzero;fill:rgb(0%,0%,0%);fill-opacity:1;stroke-width:0.75;stroke-linecap:round;stroke-linejoin:round;stroke:rgb(0%,0%,0%);stroke-opacity:1;stroke-miterlimit:10;" d="M 270.601562 115.378906 L 268.796875 117.183594 L 270.601562 118.988281 L 272.40625 117.183594 Z "/>
<path style="fill-rule:nonzero;fill:rgb(0%,0%,0%);fill-opacity:1;stroke-width:0.75;stroke-linecap:round;stroke-linejoin:round;stroke:rgb(0%,0%,0%);stroke-opacity:1;stroke-miterlimit:10;" d="M 285.207031 112.78125 L 283.402344 114.585938 L 285.207031 116.390625 L 287.011719 114.585938 Z "/>
<path style="fill-rule:nonzero;fill:rgb(0%,0%,0%);fill-opacity:1;stroke-width:0.75;stroke-linecap:round;stroke-linejoin:round;stroke:rgb(0%,0%,0%);stroke-opacity:1;stroke-miterlimit:10;" d="M 311.90625 121.679688 L 311.789062 121.058594 L 311.59375 120.453125 L 311.324219 119.882812 L 310.984375 119.347656 L 310.578125 118.859375 L 310.117188 118.425781 L 309.605469 118.050781 L 309.050781 117.746094 L 308.460938 117.511719 L 307.847656 117.355469 L 307.21875 117.277344 L 306.585938 117.277344 L 305.957031 117.355469 L 305.339844 117.511719 L 304.753906 117.746094 L 304.195312 118.050781 L 303.683594 118.425781 L 303.222656 118.859375 L 302.816406 119.347656 L 302.476562 119.882812 L 302.207031 120.453125 L 302.011719 121.058594 L 301.894531 121.679688 L 301.855469 122.3125 L 301.894531 122.945312 L 302.011719 123.566406 L 302.207031 124.171875 L 302.476562 124.742188 L 302.816406 125.277344 L 303.222656 125.765625 L 303.683594 126.203125 L 304.195312 126.574219 L 304.753906 126.878906 L 305.339844 127.113281 L 305.957031 127.269531 L 306.585938 127.347656 L 307.21875 127.347656 L 307.847656 127.269531 L 308.460938 127.113281 L 309.050781 126.878906 L 309.605469 126.574219 L 310.117188 126.203125 L 310.578125 125.765625 L 310.984375 125.277344 L 311.324219 124.742188 L 311.59375 124.171875 L 311.789062 123.566406 L 311.90625 122.945312 L 311.949219 122.3125 Z "/>
<path style="fill-rule:nonzero;fill:rgb(0%,0%,0%);fill-opacity:1;stroke-width:0.75;stroke-linecap:round;stroke-linejoin:round;stroke:rgb(0%,0%,0%);stroke-opacity:1;stroke-miterlimit:10;" d="M 271.753906 146.847656 L 269.949219 148.652344 L 271.753906 150.457031 L 273.558594 148.652344 Z "/>
<path style="fill-rule:nonzero;fill:rgb(0%,80.392157%,0%);fill-opacity:1;stroke-width:0.75;stroke-linecap:round;stroke-linejoin:round;stroke:rgb(0%,0%,0%);stroke-opacity:1;stroke-miterlimit:10;" d="M 304.808594 141.597656 L 304.6875 140.972656 L 304.492188 140.371094 L 304.222656 139.796875 L 303.882812 139.261719 L 303.480469 138.773438 L 303.019531 138.339844 L 302.503906 137.96875 L 301.949219 137.664062 L 301.359375 137.429688 L 300.746094 137.273438 L 300.117188 137.191406 L 299.484375 137.191406 L 298.855469 137.273438 L 298.242188 137.429688 L 297.652344 137.664062 L 297.097656 137.96875 L 296.585938 138.339844 L 296.121094 138.773438 L 295.71875 139.261719 L 295.378906 139.796875 L 295.109375 140.371094 L 294.914062 140.972656 L 294.792969 141.597656 L 294.753906 142.230469 L 294.792969 142.863281 L 294.914062 143.484375 L 295.109375 144.085938 L 295.378906 144.660156 L 295.71875 145.195312 L 296.121094 145.683594 L 296.585938 146.117188 L 297.097656 146.492188 L 297.652344 146.796875 L 298.242188 147.027344 L 298.855469 147.1875 L 299.484375 147.265625 L 300.117188 147.265625 L 300.746094 147.1875 L 301.359375 147.027344 L 301.949219 146.796875 L 302.503906 146.492188 L 303.019531 146.117188 L 303.480469 145.683594 L 303.882812 145.195312 L 304.222656 144.660156 L 304.492188 144.085938 L 304.6875 143.484375 L 304.808594 142.863281 L 304.847656 142.230469 Z "/>
<path style="fill-rule:nonzero;fill:rgb(0%,80.392157%,0%);fill-opacity:1;stroke-width:0.75;stroke-linecap:round;stroke-linejoin:round;stroke:rgb(0%,0%,0%);stroke-opacity:1;stroke-miterlimit:10;" d="M 288.808594 164.980469 L 288.707031 164.449219 L 288.539062 163.929688 L 288.308594 163.4375 L 288.015625 162.980469 L 287.667969 162.5625 L 287.273438 162.191406 L 286.832031 161.871094 L 286.359375 161.609375 L 285.851562 161.410156 L 285.328125 161.273438 L 284.789062 161.207031 L 284.246094 161.207031 L 283.707031 161.273438 L 283.179688 161.410156 L 282.675781 161.609375 L 282.199219 161.871094 L 281.757812 162.191406 L 281.363281 162.5625 L 281.015625 162.980469 L 280.726562 163.4375 L 280.496094 163.929688 L 280.328125 164.449219 L 280.222656 164.980469 L 280.191406 165.523438 L 280.222656 166.066406 L 280.328125 166.597656 L 280.496094 167.117188 L 280.726562 167.605469 L 281.015625 168.066406 L 281.363281 168.484375 L 281.757812 168.855469 L 282.199219 169.175781 L 282.675781 169.4375 L 283.179688 169.636719 L 283.707031 169.773438 L 284.246094 169.839844 L 284.789062 169.839844 L 285.328125 169.773438 L 285.851562 169.636719 L 286.359375 169.4375 L 286.832031 169.175781 L 287.273438 168.855469 L 287.667969 168.484375 L 288.015625 168.066406 L 288.308594 167.605469 L 288.539062 167.117188 L 288.707031 166.597656 L 288.808594 166.066406 L 288.839844 165.523438 Z "/>
<path style="fill-rule:nonzero;fill:rgb(0%,80.392157%,0%);fill-opacity:1;stroke-width:0.75;stroke-linecap:round;stroke-linejoin:round;stroke:rgb(0%,0%,0%);stroke-opacity:1;stroke-miterlimit:10;" d="M 296.886719 152.246094 L 296.75 151.535156 L 296.527344 150.847656 L 296.21875 150.191406 L 295.832031 149.578125 L 295.371094 149.019531 L 294.839844 148.523438 L 294.253906 148.097656 L 293.621094 147.75 L 292.949219 147.484375 L 292.246094 147.304688 L 291.527344 147.214844 L 290.804688 147.214844 L 290.085938 147.304688 L 289.382812 147.484375 L 288.710938 147.75 L 288.074219 148.097656 L 287.488281 148.523438 L 286.960938 149.019531 L 286.5 149.578125 L 286.109375 150.191406 L 285.800781 150.847656 L 285.578125 151.535156 L 285.441406 152.246094 L 285.398438 152.96875 L 285.441406 153.691406 L 285.578125 154.402344 L 285.800781 155.09375 L 286.109375 155.746094 L 286.5 156.359375 L 286.960938 156.917969 L 287.488281 157.414062 L 288.074219 157.839844 L 288.710938 158.1875 L 289.382812 158.453125 L 290.085938 158.632812 L 290.804688 158.726562 L 291.527344 158.726562 L 292.246094 158.632812 L 292.949219 158.453125 L 293.621094 158.1875 L 294.253906 157.839844 L 294.839844 157.414062 L 295.371094 156.917969 L 295.832031 156.359375 L 296.21875 155.746094 L 296.527344 155.09375 L 296.75 154.402344 L 296.886719 153.691406 L 296.933594 152.96875 Z "/>
<path style="fill-rule:nonzero;fill:rgb(0%,80.392157%,0%);fill-opacity:1;stroke-width:0.75;stroke-linecap:round;stroke-linejoin:round;stroke:rgb(0%,0%,0%);stroke-opacity:1;stroke-miterlimit:10;" d="M 291.878906 181.84375 L 291.796875 181.398438 L 291.65625 180.96875 L 291.460938 180.558594 L 291.21875 180.175781 L 290.929688 179.828125 L 290.601562 179.515625 L 290.234375 179.25 L 289.839844 179.035156 L 289.417969 178.867188 L 288.980469 178.753906 L 288.53125 178.699219 L 288.078125 178.699219 L 287.628906 178.753906 L 287.191406 178.867188 L 286.769531 179.035156 L 286.371094 179.25 L 286.007812 179.515625 L 285.675781 179.828125 L 285.386719 180.175781 L 285.144531 180.558594 L 284.953125 180.96875 L 284.8125 181.398438 L 284.726562 181.84375 L 284.699219 182.292969 L 284.726562 182.746094 L 284.8125 183.191406 L 284.953125 183.621094 L 285.144531 184.03125 L 285.386719 184.414062 L 285.675781 184.761719 L 286.007812 185.074219 L 286.371094 185.339844 L 286.769531 185.554688 L 287.191406 185.722656 L 287.628906 185.835938 L 288.078125 185.890625 L 288.53125 185.890625 L 288.980469 185.835938 L 289.417969 185.722656 L 289.839844 185.554688 L 290.234375 185.339844 L 290.601562 185.074219 L 290.929688 184.761719 L 291.21875 184.414062 L 291.460938 184.03125 L 291.65625 183.621094 L 291.796875 183.191406 L 291.878906 182.746094 L 291.910156 182.292969 Z "/>
<path style="fill-rule:nonzero;fill:rgb(0%,80.392157%,0%);fill-opacity:1;stroke-width:0.75;stroke-linecap:round;stroke-linejoin:round;stroke:rgb(0%,0%,0%);stroke-opacity:1;stroke-miterlimit:10;" d="M 315.34375 158.339844 L 315.257812 157.894531 L 315.117188 157.464844 L 314.925781 157.054688 L 314.683594 156.675781 L 314.394531 156.324219 L 314.066406 156.015625 L 313.699219 155.75 L 313.300781 155.53125 L 312.882812 155.363281 L 312.441406 155.253906 L 311.992188 155.195312 L 311.539062 155.195312 L 311.09375 155.253906 L 310.652344 155.363281 L 310.234375 155.53125 L 309.835938 155.75 L 309.46875 156.015625 L 309.140625 156.324219 L 308.851562 156.675781 L 308.609375 157.054688 L 308.414062 157.464844 L 308.277344 157.894531 L 308.191406 158.339844 L 308.164062 158.792969 L 308.191406 159.246094 L 308.277344 159.6875 L 308.414062 160.121094 L 308.609375 160.53125 L 308.851562 160.910156 L 309.140625 161.261719 L 309.46875 161.570312 L 309.835938 161.835938 L 310.234375 162.054688 L 310.652344 162.222656 L 311.09375 162.332031 L 311.539062 162.390625 L 311.992188 162.390625 L 312.441406 162.332031 L 312.882812 162.222656 L 313.300781 162.054688 L 313.699219 161.835938 L 314.066406 161.570312 L 314.394531 161.261719 L 314.683594 160.910156 L 314.925781 160.53125 L 315.117188 160.121094 L 315.257812 159.6875 L 315.34375 159.246094 L 315.371094 158.792969 Z "/>
<path style="fill-rule:nonzero;fill:rgb(0%,80.392157%,0%);fill-opacity:1;stroke-width:0.75;stroke-linecap:round;stroke-linejoin:round;stroke:rgb(0%,0%,0%);stroke-opacity:1;stroke-miterlimit:10;" d="M 302.480469 174.097656 L 302.394531 173.652344 L 302.253906 173.222656 L 302.0625 172.8125 L 301.820312 172.429688 L 301.53125 172.082031 L 301.199219 171.769531 L 300.835938 171.503906 L 300.4375 171.285156 L 300.015625 171.121094 L 299.578125 171.007812 L 299.128906 170.949219 L 298.675781 170.949219 L 298.226562 171.007812 L 297.789062 171.121094 L 297.367188 171.285156 L 296.972656 171.503906 L 296.605469 171.769531 L 296.277344 172.082031 L 295.988281 172.429688 L 295.746094 172.8125 L 295.550781 173.222656 L 295.410156 173.652344 L 295.328125 174.097656 L 295.296875 174.546875 L 295.328125 175 L 295.410156 175.445312 L 295.550781 175.875 L 295.746094 176.285156 L 295.988281 176.667969 L 296.277344 177.015625 L 296.605469 177.324219 L 296.972656 177.589844 L 297.367188 177.808594 L 297.789062 177.976562 L 298.226562 178.089844 L 298.675781 178.144531 L 299.128906 178.144531 L 299.578125 178.089844 L 300.015625 177.976562 L 300.4375 177.808594 L 300.835938 177.589844 L 301.199219 177.324219 L 301.53125 177.015625 L 301.820312 176.667969 L 302.0625 176.285156 L 302.253906 175.875 L 302.394531 175.445312 L 302.480469 175 L 302.507812 174.546875 Z "/>
<path style="fill-rule:nonzero;fill:rgb(0%,80.392157%,0%);fill-opacity:1;stroke-width:0.75;stroke-linecap:round;stroke-linejoin:round;stroke:rgb(0%,0%,0%);stroke-opacity:1;stroke-miterlimit:10;" d="M 324.703125 170.460938 L 324.582031 169.839844 L 324.386719 169.238281 L 324.117188 168.664062 L 323.777344 168.128906 L 323.375 167.640625 L 322.910156 167.207031 L 322.398438 166.835938 L 321.84375 166.527344 L 321.253906 166.296875 L 320.640625 166.136719 L 320.011719 166.058594 L 319.378906 166.058594 L 318.75 166.136719 L 318.136719 166.296875 L 317.546875 166.527344 L 316.992188 166.835938 L 316.476562 167.207031 L 316.015625 167.640625 L 315.613281 168.128906 L 315.273438 168.664062 L 315.003906 169.238281 L 314.808594 169.839844 L 314.6875 170.460938 L 314.648438 171.09375 L 314.6875 171.726562 L 314.808594 172.351562 L 315.003906 172.953125 L 315.273438 173.527344 L 315.613281 174.0625 L 316.015625 174.550781 L 316.476562 174.984375 L 316.992188 175.355469 L 317.546875 175.660156 L 318.136719 175.894531 L 318.75 176.050781 L 319.378906 176.132812 L 320.011719 176.132812 L 320.640625 176.050781 L 321.253906 175.894531 L 321.84375 175.660156 L 322.398438 175.355469 L 322.910156 174.984375 L 323.375 174.550781 L 323.777344 174.0625 L 324.117188 173.527344 L 324.386719 172.953125 L 324.582031 172.351562 L 324.703125 171.726562 L 324.742188 171.09375 Z "/>
<path style="fill:none;stroke-width:0.75;stroke-linecap:round;stroke-linejoin:round;stroke:rgb(0%,0%,0%);stroke-opacity:1;stroke-miterlimit:10;" d="M 341.980469 146.476562 Z "/>
<path style="fill:none;stroke-width:0.75;stroke-linecap:round;stroke-linejoin:round;stroke:rgb(0%,0%,0%);stroke-opacity:1;stroke-miterlimit:10;" d="M 331.550781 91.304688 Z "/>
<path style="fill:none;stroke-width:0.75;stroke-linecap:round;stroke-linejoin:round;stroke:rgb(0%,0%,0%);stroke-opacity:1;stroke-miterlimit:10;" d="M 390.289062 103.394531 Z "/>
<path style="fill-rule:nonzero;fill:rgb(100%,0%,0%);fill-opacity:1;stroke-width:0.75;stroke-linecap:round;stroke-linejoin:round;stroke:rgb(0%,0%,0%);stroke-opacity:1;stroke-miterlimit:10;" d="M 356.199219 173.933594 L 356.183594 173.84375 L 356.15625 173.757812 L 356.117188 173.675781 L 356.066406 173.601562 L 356.011719 173.53125 L 355.945312 173.46875 L 355.871094 173.414062 L 355.792969 173.371094 L 355.707031 173.339844 L 355.621094 173.316406 L 355.53125 173.304688 L 355.441406 173.304688 L 355.351562 173.316406 L 355.261719 173.339844 L 355.179688 173.371094 L 355.097656 173.414062 L 355.027344 173.46875 L 354.960938 173.53125 L 354.902344 173.601562 L 354.851562 173.675781 L 354.816406 173.757812 L 354.785156 173.84375 L 354.769531 173.933594 L 354.765625 174.023438 L 354.769531 174.113281 L 354.785156 174.203125 L 354.816406 174.289062 L 354.851562 174.371094 L 354.902344 174.449219 L 354.960938 174.519531 L 355.027344 174.578125 L 355.097656 174.632812 L 355.179688 174.675781 L 355.261719 174.710938 L 355.351562 174.730469 L 355.441406 174.742188 L 355.53125 174.742188 L 355.621094 174.730469 L 355.707031 174.710938 L 355.792969 174.675781 L 355.871094 174.632812 L 355.945312 174.578125 L 356.011719 174.519531 L 356.066406 174.449219 L 356.117188 174.371094 L 356.15625 174.289062 L 356.183594 174.203125 L 356.199219 174.113281 L 356.207031 174.023438 Z "/>
</g>
</svg>
