<?xml version="1.0" encoding="UTF-8"?>
<svg xmlns="http://www.w3.org/2000/svg" xmlns:xlink="http://www.w3.org/1999/xlink" width="612pt" height="288pt" viewBox="0 0 612 288" version="1.1">
<g id="surface136">
<rect x="0" y="0" width="612" height="288" style="fill:rgb(100%,100%,100%);fill-opacity:1;stroke:none;"/>
<path style="fill-rule:nonzero;fill:rgb(0%,0%,0%);fill-opacity:1;stroke-width:0.75;stroke-linecap:round;stroke-linejoin:round;stroke:rgb(0%,0%,0%);stroke-opacity:1;stroke-miterlimit:10;" d="M 266.90625 170.132812 L 262.5 190.515625 L 263.660156 189.46875 L 262.128906 191.90625 L 261.734375 189.054688 L 262.359375 190.484375 L 266.765625 170.101562 Z "/>
<path style="fill-rule:nonzero;fill:rgb(0%,0%,0%);fill-opacity:1;stroke-width:0.75;stroke-linecap:round;stroke-linejoin:round;stroke:rgb(0%,0%,0%);stroke-opacity:1;stroke-miterlimit:10;" d="M 272.472656 163.074219 L 306.476562 147.917969 L 304.949219 147.597656 L 307.820312 147.398438 L 305.75 149.398438 L 306.535156 148.050781 L 272.53125 163.207031 Z "/>
<path style="fill-rule:nonzero;fill:rgb(0%,0%,0%);fill-opacity:1;stroke-width:0.75;stroke-linecap:round;stroke-linejoin:round;stroke:rgb(0%,0%,0%);stroke-opacity:1;stroke-miterlimit:10;" d="M 272.589844 167.039062 L 290.097656 174.21875 L 289.273438 172.894531 L 291.402344 174.832031 L 288.527344 174.71875 L 290.042969 174.351562 L 272.535156 167.171875 Z "/>
<path style="fill-rule:nonzero;fill:rgb(0%,0%,0%);fill-opacity:1;stroke-width:0.75;stroke-linecap:round;stroke-linejoin:round;stroke:rgb(0%,0%,0%);stroke-opacity:1;stroke-miterlimit:10;" d="M 272.246094 162.640625 L 316.890625 137.324219 L 315.335938 137.15625 L 318.175781 136.679688 L 316.308594 138.871094 L 316.960938 137.453125 L 272.320312 162.769531 Z "/>
<path style="fill-rule:nonzero;fill:rgb(0%,0%,0%);fill-opacity:1;stroke-width:0.75;stroke-linecap:round;stroke-linejoin:round;stroke:rgb(0%,0%,0%);stroke-opacity:1;stroke-miterlimit:10;" d="M 268.730469 160.21875 L 276.703125 116.402344 L 275.578125 117.488281 L 277.03125 115 L 277.515625 117.839844 L 276.84375 116.429688 L 268.871094 160.246094 Z "/>
<path style="fill-rule:nonzero;fill:rgb(0%,0%,0%);fill-opacity:1;stroke-width:0.75;stroke-linecap:round;stroke-linejoin:round;stroke:rgb(0%,0%,0%);stroke-opacity:1;stroke-miterlimit:10;" d="M 267.761719 160.152344 L 266.964844 99.914062 L 266.066406 101.191406 L 267.015625 98.472656 L 268.035156 101.167969 L 267.105469 99.914062 L 267.902344 160.152344 Z "/>
<path style="fill-rule:nonzero;fill:rgb(0%,0%,0%);fill-opacity:1;stroke-width:0.75;stroke-linecap:round;stroke-linejoin:round;stroke:rgb(0%,0%,0%);stroke-opacity:1;stroke-miterlimit:10;" d="M 262.058594 191.890625 L 266.460938 171.511719 L 265.300781 172.554688 L 266.835938 170.117188 L 267.226562 172.972656 L 266.601562 171.539062 L 262.199219 191.921875 Z "/>
<path style="fill-rule:nonzero;fill:rgb(0%,0%,0%);fill-opacity:1;stroke-width:0.75;stroke-linecap:round;stroke-linejoin:round;stroke:rgb(0%,0%,0%);stroke-opacity:1;stroke-miterlimit:10;" d="M 265.070312 194.175781 L 315.902344 169.46875 L 314.363281 169.199219 L 317.230469 168.902344 L 315.226562 170.972656 L 315.964844 169.597656 L 265.132812 194.304688 Z "/>
<path style="fill-rule:nonzero;fill:rgb(0%,0%,0%);fill-opacity:1;stroke-width:0.75;stroke-linecap:round;stroke-linejoin:round;stroke:rgb(0%,0%,0%);stroke-opacity:1;stroke-miterlimit:10;" d="M 260.765625 191.832031 L 256.761719 146.066406 L 255.964844 147.410156 L 256.707031 144.628906 L 257.925781 147.238281 L 256.90625 146.054688 L 260.910156 191.820312 Z "/>
<path style="fill-rule:nonzero;fill:rgb(0%,0%,0%);fill-opacity:1;stroke-width:0.75;stroke-linecap:round;stroke-linejoin:round;stroke:rgb(0%,0%,0%);stroke-opacity:1;stroke-miterlimit:10;" d="M 264.984375 194.019531 L 290.359375 180.367188 L 288.8125 180.164062 L 291.660156 179.75 L 289.742188 181.898438 L 290.425781 180.492188 L 265.054688 194.148438 Z "/>
<path style="fill-rule:nonzero;fill:rgb(0%,0%,0%);fill-opacity:1;stroke-width:0.75;stroke-linecap:round;stroke-linejoin:round;stroke:rgb(0%,0%,0%);stroke-opacity:1;stroke-miterlimit:10;" d="M 262.730469 192.085938 L 279.269531 150.136719 L 277.953125 150.980469 L 279.863281 148.824219 L 279.785156 151.703125 L 279.402344 150.191406 L 262.867188 192.136719 Z "/>
<path style="fill-rule:nonzero;fill:rgb(0%,0%,0%);fill-opacity:1;stroke-width:0.75;stroke-linecap:round;stroke-linejoin:round;stroke:rgb(0%,0%,0%);stroke-opacity:1;stroke-miterlimit:10;" d="M 316.796875 166.9375 L 274.371094 165.484375 L 275.605469 166.441406 L 272.9375 165.363281 L 275.675781 164.472656 L 274.378906 165.339844 L 316.800781 166.796875 Z "/>
<path style="fill-rule:nonzero;fill:rgb(0%,0%,0%);fill-opacity:1;stroke-width:0.75;stroke-linecap:round;stroke-linejoin:round;stroke:rgb(0%,0%,0%);stroke-opacity:1;stroke-miterlimit:10;" d="M 317.261719 168.96875 L 266.425781 193.675781 L 267.964844 193.945312 L 265.101562 194.242188 L 267.105469 192.171875 L 266.363281 193.546875 L 317.199219 168.839844 Z "/>
<path style="fill-rule:nonzero;fill:rgb(0%,0%,0%);fill-opacity:1;stroke-width:0.75;stroke-linecap:round;stroke-linejoin:round;stroke:rgb(0%,0%,0%);stroke-opacity:1;stroke-miterlimit:10;" d="M 317.109375 165.398438 L 262.210938 142.195312 L 263.019531 143.53125 L 260.910156 141.570312 L 263.789062 141.714844 L 262.265625 142.0625 L 317.164062 165.265625 Z "/>
<path style="fill-rule:nonzero;fill:rgb(0%,0%,0%);fill-opacity:1;stroke-width:0.75;stroke-linecap:round;stroke-linejoin:round;stroke:rgb(0%,0%,0%);stroke-opacity:1;stroke-miterlimit:10;" d="M 319.441406 163.03125 L 314.769531 151.386719 L 314.394531 152.902344 L 314.300781 150.023438 L 316.222656 152.167969 L 314.902344 151.332031 L 319.574219 162.980469 Z "/>
<path style="fill-rule:nonzero;fill:rgb(0%,0%,0%);fill-opacity:1;stroke-width:0.75;stroke-linecap:round;stroke-linejoin:round;stroke:rgb(0%,0%,0%);stroke-opacity:1;stroke-miterlimit:10;" d="M 317.308594 164.96875 L 286.4375 147.683594 L 287.097656 149.097656 L 285.214844 146.917969 L 288.058594 147.378906 L 286.507812 147.558594 L 317.378906 164.84375 Z "/>
<path style="fill-rule:nonzero;fill:rgb(0%,0%,0%);fill-opacity:1;stroke-width:0.75;stroke-linecap:round;stroke-linejoin:round;stroke:rgb(0%,0%,0%);stroke-opacity:1;stroke-miterlimit:10;" d="M 320.3125 162.769531 L 312.011719 114.542969 L 311.324219 115.945312 L 311.835938 113.109375 L 313.265625 115.609375 L 312.152344 114.515625 L 320.453125 162.746094 Z "/>
<path style="fill-rule:nonzero;fill:rgb(0%,0%,0%);fill-opacity:1;stroke-width:0.75;stroke-linecap:round;stroke-linejoin:round;stroke:rgb(0%,0%,0%);stroke-opacity:1;stroke-miterlimit:10;" d="M 324.628906 164.5 L 382.710938 124.375 L 381.152344 124.34375 L 383.9375 123.617188 L 382.269531 125.964844 L 382.792969 124.492188 L 324.710938 164.617188 Z "/>
<path style="fill-rule:nonzero;fill:rgb(0%,0%,0%);fill-opacity:1;stroke-width:0.75;stroke-linecap:round;stroke-linejoin:round;stroke:rgb(0%,0%,0%);stroke-opacity:1;stroke-miterlimit:10;" d="M 258.421875 144.164062 L 265.28125 159.261719 L 265.589844 157.730469 L 265.8125 160.601562 L 263.796875 158.546875 L 265.152344 159.320312 L 258.289062 144.222656 Z "/>
<path style="fill-rule:nonzero;fill:rgb(0%,0%,0%);fill-opacity:1;stroke-width:0.75;stroke-linecap:round;stroke-linejoin:round;stroke:rgb(0%,0%,0%);stroke-opacity:1;stroke-miterlimit:10;" d="M 256.78125 144.621094 L 260.785156 190.386719 L 261.582031 189.042969 L 260.839844 191.828125 L 259.621094 189.214844 L 260.640625 190.398438 L 256.636719 144.632812 Z "/>
<path style="fill-rule:nonzero;fill:rgb(0%,0%,0%);fill-opacity:1;stroke-width:0.75;stroke-linecap:round;stroke-linejoin:round;stroke:rgb(0%,0%,0%);stroke-opacity:1;stroke-miterlimit:10;" d="M 260.941406 141.503906 L 315.835938 164.707031 L 315.027344 163.371094 L 317.136719 165.332031 L 314.257812 165.1875 L 315.78125 164.839844 L 260.882812 141.636719 Z "/>
<path style="fill-rule:nonzero;fill:rgb(0%,0%,0%);fill-opacity:1;stroke-width:0.75;stroke-linecap:round;stroke-linejoin:round;stroke:rgb(0%,0%,0%);stroke-opacity:1;stroke-miterlimit:10;" d="M 261.289062 140.046875 L 305.984375 144.613281 L 304.820312 143.578125 L 307.410156 144.832031 L 304.617188 145.539062 L 305.972656 144.757812 L 261.277344 140.191406 Z "/>
<path style="fill-rule:nonzero;fill:rgb(0%,0%,0%);fill-opacity:1;stroke-width:0.75;stroke-linecap:round;stroke-linejoin:round;stroke:rgb(0%,0%,0%);stroke-opacity:1;stroke-miterlimit:10;" d="M 260.019531 142.976562 L 291.496094 172.078125 L 291.183594 170.546875 L 292.503906 173.109375 L 289.847656 171.996094 L 291.398438 172.183594 L 259.921875 143.082031 Z "/>
<path style="fill-rule:nonzero;fill:rgb(0%,0%,0%);fill-opacity:1;stroke-width:0.75;stroke-linecap:round;stroke-linejoin:round;stroke:rgb(0%,0%,0%);stroke-opacity:1;stroke-miterlimit:10;" d="M 261.21875 140.554688 L 275.820312 143.570312 L 274.765625 142.421875 L 277.214844 143.933594 L 274.367188 144.347656 L 275.792969 143.710938 L 261.191406 140.695312 Z "/>
<path style="fill-rule:nonzero;fill:rgb(0%,0%,0%);fill-opacity:1;stroke-width:0.75;stroke-linecap:round;stroke-linejoin:round;stroke:rgb(0%,0%,0%);stroke-opacity:1;stroke-miterlimit:10;" d="M 261.273438 139.015625 L 315.660156 133.382812 L 314.304688 132.605469 L 317.097656 133.304688 L 314.507812 134.566406 L 315.675781 133.527344 L 261.289062 139.160156 Z "/>
<path style="fill-rule:nonzero;fill:rgb(0%,0%,0%);fill-opacity:1;stroke-width:0.75;stroke-linecap:round;stroke-linejoin:round;stroke:rgb(0%,0%,0%);stroke-opacity:1;stroke-miterlimit:10;" d="M 307.851562 147.464844 L 273.847656 162.617188 L 275.375 162.9375 L 272.503906 163.140625 L 274.574219 161.136719 L 273.789062 162.488281 L 307.792969 147.332031 Z "/>
<path style="fill-rule:nonzero;fill:rgb(0%,0%,0%);fill-opacity:1;stroke-width:0.75;stroke-linecap:round;stroke-linejoin:round;stroke:rgb(0%,0%,0%);stroke-opacity:1;stroke-miterlimit:10;" d="M 308.898438 148.945312 L 265.355469 192.125 L 266.898438 191.882812 L 264.28125 193.089844 L 265.511719 190.484375 L 265.253906 192.023438 L 308.796875 148.84375 Z "/>
<path style="fill-rule:nonzero;fill:rgb(0%,0%,0%);fill-opacity:1;stroke-width:0.75;stroke-linecap:round;stroke-linejoin:round;stroke:rgb(0%,0%,0%);stroke-opacity:1;stroke-miterlimit:10;" d="M 314.367188 149.996094 L 319.039062 161.640625 L 319.414062 160.128906 L 319.507812 163.003906 L 317.585938 160.859375 L 318.902344 161.695312 L 314.234375 150.050781 Z "/>
<path style="fill-rule:nonzero;fill:rgb(0%,0%,0%);fill-opacity:1;stroke-width:0.75;stroke-linecap:round;stroke-linejoin:round;stroke:rgb(0%,0%,0%);stroke-opacity:1;stroke-miterlimit:10;" d="M 307.402344 144.90625 L 262.707031 140.335938 L 263.875 141.375 L 261.285156 140.117188 L 264.074219 139.414062 L 262.722656 140.195312 L 307.417969 144.761719 Z "/>
<path style="fill-rule:nonzero;fill:rgb(0%,0%,0%);fill-opacity:1;stroke-width:0.75;stroke-linecap:round;stroke-linejoin:round;stroke:rgb(0%,0%,0%);stroke-opacity:1;stroke-miterlimit:10;" d="M 310.253906 149.894531 L 299.992188 170.597656 L 301.375 169.871094 L 299.289062 171.859375 L 299.609375 168.996094 L 299.863281 170.535156 L 310.121094 149.828125 Z "/>
<path style="fill-rule:nonzero;fill:rgb(0%,0%,0%);fill-opacity:1;stroke-width:0.75;stroke-linecap:round;stroke-linejoin:round;stroke:rgb(0%,0%,0%);stroke-opacity:1;stroke-miterlimit:10;" d="M 314.054688 140.574219 L 332.628906 88.617188 L 331.34375 89.5 L 333.183594 87.285156 L 333.199219 90.164062 L 332.765625 88.664062 L 314.1875 140.625 Z "/>
<path style="fill-rule:nonzero;fill:rgb(0%,0%,0%);fill-opacity:1;stroke-width:0.75;stroke-linecap:round;stroke-linejoin:round;stroke:rgb(0%,0%,0%);stroke-opacity:1;stroke-miterlimit:10;" d="M 291.375 174.898438 L 273.867188 167.71875 L 274.691406 169.042969 L 272.5625 167.105469 L 275.441406 167.21875 L 273.921875 167.585938 L 291.429688 174.765625 Z "/>
<path style="fill-rule:nonzero;fill:rgb(0%,0%,0%);fill-opacity:1;stroke-width:0.75;stroke-linecap:round;stroke-linejoin:round;stroke:rgb(0%,0%,0%);stroke-opacity:1;stroke-miterlimit:10;" d="M 291.695312 179.8125 L 266.320312 193.464844 L 267.871094 193.667969 L 265.019531 194.082031 L 266.9375 191.933594 L 266.253906 193.335938 L 291.625 179.683594 Z "/>
<path style="fill-rule:nonzero;fill:rgb(0%,0%,0%);fill-opacity:1;stroke-width:0.75;stroke-linecap:round;stroke-linejoin:round;stroke:rgb(0%,0%,0%);stroke-opacity:1;stroke-miterlimit:10;" d="M 302.035156 174.765625 L 315.757812 169.136719 L 314.242188 168.769531 L 317.117188 168.65625 L 314.988281 170.59375 L 315.8125 169.269531 L 302.089844 174.898438 Z "/>
<path style="fill-rule:nonzero;fill:rgb(0%,0%,0%);fill-opacity:1;stroke-width:0.75;stroke-linecap:round;stroke-linejoin:round;stroke:rgb(0%,0%,0%);stroke-opacity:1;stroke-miterlimit:10;" d="M 292.453125 173.160156 L 260.976562 144.058594 L 261.289062 145.589844 L 259.96875 143.027344 L 262.625 144.140625 L 261.078125 143.953125 L 292.550781 173.054688 Z "/>
<path style="fill-rule:nonzero;fill:rgb(0%,0%,0%);fill-opacity:1;stroke-width:0.75;stroke-linecap:round;stroke-linejoin:round;stroke:rgb(0%,0%,0%);stroke-opacity:1;stroke-miterlimit:10;" d="M 299.226562 171.824219 L 309.484375 151.121094 L 308.101562 151.847656 L 310.1875 149.863281 L 309.867188 152.722656 L 309.613281 151.183594 L 299.355469 171.890625 Z "/>
<path style="fill-rule:nonzero;fill:rgb(0%,0%,0%);fill-opacity:1;stroke-width:0.75;stroke-linecap:round;stroke-linejoin:round;stroke:rgb(0%,0%,0%);stroke-opacity:1;stroke-miterlimit:10;" d="M 294.199219 171.847656 L 283.851562 150.039062 L 283.570312 151.574219 L 283.300781 148.707031 L 285.347656 150.730469 L 283.980469 149.980469 L 294.328125 171.785156 Z "/>
<path style="fill-rule:nonzero;fill:rgb(0%,0%,0%);fill-opacity:1;stroke-width:0.75;stroke-linecap:round;stroke-linejoin:round;stroke:rgb(0%,0%,0%);stroke-opacity:1;stroke-miterlimit:10;" d="M 299.808594 172.148438 L 320.144531 140.832031 L 318.6875 141.394531 L 320.988281 139.664062 L 320.339844 142.46875 L 320.265625 140.910156 L 299.929688 172.226562 Z "/>
<path style="fill-rule:nonzero;fill:rgb(0%,0%,0%);fill-opacity:1;stroke-width:0.75;stroke-linecap:round;stroke-linejoin:round;stroke:rgb(0%,0%,0%);stroke-opacity:1;stroke-miterlimit:10;" d="M 295.082031 171.5 L 279.316406 116.308594 L 278.785156 117.777344 L 278.992188 114.902344 L 280.679688 117.234375 L 279.457031 116.269531 L 295.21875 171.460938 Z "/>
<path style="fill-rule:nonzero;fill:rgb(0%,0%,0%);fill-opacity:1;stroke-width:0.75;stroke-linecap:round;stroke-linejoin:round;stroke:rgb(0%,0%,0%);stroke-opacity:1;stroke-miterlimit:10;" d="M 279.117188 148.445312 L 271.546875 159.835938 L 273.007812 159.285156 L 270.6875 160.992188 L 271.367188 158.195312 L 271.425781 159.753906 L 278.996094 148.363281 Z "/>
<path style="fill-rule:nonzero;fill:rgb(0%,0%,0%);fill-opacity:1;stroke-width:0.75;stroke-linecap:round;stroke-linejoin:round;stroke:rgb(0%,0%,0%);stroke-opacity:1;stroke-miterlimit:10;" d="M 279.929688 148.851562 L 263.394531 190.796875 L 264.707031 189.953125 L 262.800781 192.109375 L 262.875 189.230469 L 263.261719 190.746094 L 279.796875 148.796875 Z "/>
<path style="fill-rule:nonzero;fill:rgb(0%,0%,0%);fill-opacity:1;stroke-width:0.75;stroke-linecap:round;stroke-linejoin:round;stroke:rgb(0%,0%,0%);stroke-opacity:1;stroke-miterlimit:10;" d="M 277.203125 144.003906 L 262.601562 140.988281 L 263.65625 142.136719 L 261.207031 140.625 L 264.054688 140.207031 L 262.628906 140.847656 L 277.230469 143.863281 Z "/>
<path style="fill-rule:nonzero;fill:rgb(0%,0%,0%);fill-opacity:1;stroke-width:0.75;stroke-linecap:round;stroke-linejoin:round;stroke:rgb(0%,0%,0%);stroke-opacity:1;stroke-miterlimit:10;" d="M 285.769531 144.808594 L 305.945312 145.160156 L 304.695312 144.226562 L 307.386719 145.257812 L 304.664062 146.195312 L 305.945312 145.304688 L 285.765625 144.953125 Z "/>
<path style="fill-rule:nonzero;fill:rgb(0%,0%,0%);fill-opacity:1;stroke-width:0.75;stroke-linecap:round;stroke-linejoin:round;stroke:rgb(0%,0%,0%);stroke-opacity:1;stroke-miterlimit:10;" d="M 283.363281 148.679688 L 293.710938 170.484375 L 293.992188 168.949219 L 294.261719 171.816406 L 292.214844 169.792969 L 293.582031 170.546875 L 283.234375 148.738281 Z "/>
<path style="fill-rule:nonzero;fill:rgb(0%,0%,0%);fill-opacity:1;stroke-width:0.75;stroke-linecap:round;stroke-linejoin:round;stroke:rgb(0%,0%,0%);stroke-opacity:1;stroke-miterlimit:10;" d="M 284.101562 141.398438 L 306.863281 113.144531 L 305.355469 113.558594 L 307.820312 112.066406 L 306.890625 114.792969 L 306.972656 113.234375 L 284.214844 141.488281 Z "/>
<path style="fill-rule:nonzero;fill:rgb(0%,0%,0%);fill-opacity:1;stroke-width:0.75;stroke-linecap:round;stroke-linejoin:round;stroke:rgb(0%,0%,0%);stroke-opacity:1;stroke-miterlimit:10;" d="M 282.925781 140.746094 L 304.824219 83.527344 L 303.519531 84.382812 L 305.40625 82.207031 L 305.359375 85.085938 L 304.960938 83.578125 L 283.058594 140.796875 Z "/>
<path style="fill-rule:nonzero;fill:rgb(0%,0%,0%);fill-opacity:1;stroke-width:0.75;stroke-linecap:round;stroke-linejoin:round;stroke:rgb(0%,0%,0%);stroke-opacity:1;stroke-miterlimit:10;" d="M 280.21875 140.664062 L 268.800781 99.667969 L 268.261719 101.132812 L 268.484375 98.261719 L 270.160156 100.605469 L 268.941406 99.632812 L 280.355469 140.625 Z "/>
<path style="fill-rule:nonzero;fill:rgb(0%,0%,0%);fill-opacity:1;stroke-width:0.75;stroke-linecap:round;stroke-linejoin:round;stroke:rgb(0%,0%,0%);stroke-opacity:1;stroke-miterlimit:10;" d="M 334.136719 87.535156 L 327.613281 122.519531 L 328.742188 121.441406 L 327.277344 123.921875 L 326.804688 121.082031 L 327.46875 122.492188 L 333.992188 87.511719 Z "/>
<path style="fill-rule:nonzero;fill:rgb(0%,0%,0%);fill-opacity:1;stroke-width:0.75;stroke-linecap:round;stroke-linejoin:round;stroke:rgb(0%,0%,0%);stroke-opacity:1;stroke-miterlimit:10;" d="M 329.445312 82.835938 L 274.0625 91.652344 L 275.457031 92.355469 L 272.628906 91.808594 L 275.144531 90.410156 L 274.039062 91.511719 L 329.421875 82.695312 Z "/>
<path style="fill-rule:nonzero;fill:rgb(0%,0%,0%);fill-opacity:1;stroke-width:0.75;stroke-linecap:round;stroke-linejoin:round;stroke:rgb(0%,0%,0%);stroke-opacity:1;stroke-miterlimit:10;" d="M 317.105469 133.378906 L 262.722656 139.011719 L 264.074219 139.789062 L 261.28125 139.085938 L 263.875 137.828125 L 262.707031 138.867188 L 317.089844 133.234375 Z "/>
<path style="fill-rule:nonzero;fill:rgb(0%,0%,0%);fill-opacity:1;stroke-width:0.75;stroke-linecap:round;stroke-linejoin:round;stroke:rgb(0%,0%,0%);stroke-opacity:1;stroke-miterlimit:10;" d="M 327.207031 123.910156 L 333.730469 88.925781 L 332.601562 90.003906 L 334.066406 87.523438 L 334.535156 90.363281 L 333.871094 88.953125 L 327.347656 123.9375 Z "/>
<path style="fill-rule:nonzero;fill:rgb(0%,0%,0%);fill-opacity:1;stroke-width:0.75;stroke-linecap:round;stroke-linejoin:round;stroke:rgb(0%,0%,0%);stroke-opacity:1;stroke-miterlimit:10;" d="M 321.152344 125.066406 L 314.28125 113.722656 L 314.15625 115.277344 L 313.59375 112.453125 L 315.839844 114.257812 L 314.402344 113.648438 L 321.277344 124.988281 Z "/>
<path style="fill-rule:nonzero;fill:rgb(0%,0%,0%);fill-opacity:1;stroke-width:0.75;stroke-linecap:round;stroke-linejoin:round;stroke:rgb(0%,0%,0%);stroke-opacity:1;stroke-miterlimit:10;" d="M 322.804688 124.273438 L 308.765625 83.640625 L 308.316406 85.132812 L 308.363281 82.253906 L 310.175781 84.492188 L 308.902344 83.59375 L 322.941406 124.226562 Z "/>
<path style="fill-rule:nonzero;fill:rgb(0%,0%,0%);fill-opacity:1;stroke-width:0.75;stroke-linecap:round;stroke-linejoin:round;stroke:rgb(0%,0%,0%);stroke-opacity:1;stroke-miterlimit:10;" d="M 317.792969 128.921875 L 283.023438 113.191406 L 283.800781 114.542969 L 281.738281 112.53125 L 284.613281 112.75 L 283.082031 113.058594 L 317.851562 128.789062 Z "/>
<path style="fill-rule:nonzero;fill:rgb(0%,0%,0%);fill-opacity:1;stroke-width:0.75;stroke-linecap:round;stroke-linejoin:round;stroke:rgb(0%,0%,0%);stroke-opacity:1;stroke-miterlimit:10;" d="M 318.492188 127.636719 L 272.863281 96.804688 L 273.402344 98.269531 L 271.710938 95.9375 L 274.507812 96.636719 L 272.945312 96.6875 L 318.574219 127.519531 Z "/>
<path style="fill-rule:nonzero;fill:rgb(0%,0%,0%);fill-opacity:1;stroke-width:0.75;stroke-linecap:round;stroke-linejoin:round;stroke:rgb(0%,0%,0%);stroke-opacity:1;stroke-miterlimit:10;" d="M 332.789062 137.347656 L 376.554688 168.320312 L 376.046875 166.84375 L 377.6875 169.210938 L 374.910156 168.449219 L 376.472656 168.4375 L 332.703125 137.464844 Z "/>
<path style="fill-rule:nonzero;fill:rgb(0%,0%,0%);fill-opacity:1;stroke-width:0.75;stroke-linecap:round;stroke-linejoin:round;stroke:rgb(0%,0%,0%);stroke-opacity:1;stroke-miterlimit:10;" d="M 311.910156 113.097656 L 320.210938 161.328125 L 320.894531 159.921875 L 320.382812 162.757812 L 318.953125 160.257812 L 320.066406 161.351562 L 311.765625 113.121094 Z "/>
<path style="fill-rule:nonzero;fill:rgb(0%,0%,0%);fill-opacity:1;stroke-width:0.75;stroke-linecap:round;stroke-linejoin:round;stroke:rgb(0%,0%,0%);stroke-opacity:1;stroke-miterlimit:10;" d="M 310.03125 113.09375 L 298.261719 169.984375 L 299.414062 168.929688 L 297.898438 171.378906 L 297.484375 168.527344 L 298.121094 169.953125 L 309.890625 113.0625 Z "/>
<path style="fill-rule:nonzero;fill:rgb(0%,0%,0%);fill-opacity:1;stroke-width:0.75;stroke-linecap:round;stroke-linejoin:round;stroke:rgb(0%,0%,0%);stroke-opacity:1;stroke-miterlimit:10;" d="M 314.339844 104.382812 L 330.199219 87.113281 L 328.667969 87.429688 L 331.222656 86.101562 L 330.121094 88.761719 L 330.304688 87.210938 L 314.445312 104.480469 Z "/>
<path style="fill-rule:nonzero;fill:rgb(0%,0%,0%);fill-opacity:1;stroke-width:0.75;stroke-linecap:round;stroke-linejoin:round;stroke:rgb(0%,0%,0%);stroke-opacity:1;stroke-miterlimit:10;" d="M 313.65625 112.417969 L 320.53125 123.757812 L 320.65625 122.203125 L 321.214844 125.027344 L 318.96875 123.222656 L 320.40625 123.832031 L 313.535156 112.492188 Z "/>
<path style="fill-rule:nonzero;fill:rgb(0%,0%,0%);fill-opacity:1;stroke-width:0.75;stroke-linecap:round;stroke-linejoin:round;stroke:rgb(0%,0%,0%);stroke-opacity:1;stroke-miterlimit:10;" d="M 310.238281 103.15625 L 307.648438 83.890625 L 306.910156 85.265625 L 307.527344 82.453125 L 308.863281 85.003906 L 307.789062 83.871094 L 310.382812 103.140625 Z "/>
<path style="fill-rule:nonzero;fill:rgb(0%,0%,0%);fill-opacity:1;stroke-width:0.75;stroke-linecap:round;stroke-linejoin:round;stroke:rgb(0%,0%,0%);stroke-opacity:1;stroke-miterlimit:10;" d="M 306.203125 106.546875 L 273.710938 95.164062 L 274.605469 96.441406 L 272.375 94.617188 L 275.253906 94.582031 L 273.757812 95.027344 L 306.25 106.410156 Z "/>
<path style="fill-rule:nonzero;fill:rgb(0%,0%,0%);fill-opacity:1;stroke-width:0.75;stroke-linecap:round;stroke-linejoin:round;stroke:rgb(0%,0%,0%);stroke-opacity:1;stroke-miterlimit:10;" d="M 307.871094 104.175781 L 282.699219 71.117188 L 282.742188 72.679688 L 281.882812 69.929688 L 284.308594 71.484375 L 282.8125 71.03125 L 307.988281 104.089844 Z "/>
<path style="fill-rule:nonzero;fill:rgb(0%,0%,0%);fill-opacity:1;stroke-width:0.75;stroke-linecap:round;stroke-linejoin:round;stroke:rgb(0%,0%,0%);stroke-opacity:1;stroke-miterlimit:10;" d="M 307.375 82.472656 L 311.96875 138.882812 L 312.777344 137.542969 L 312.015625 140.320312 L 310.8125 137.703125 L 311.828125 138.894531 L 307.230469 82.484375 Z "/>
<path style="fill-rule:nonzero;fill:rgb(0%,0%,0%);fill-opacity:1;stroke-width:0.75;stroke-linecap:round;stroke-linejoin:round;stroke:rgb(0%,0%,0%);stroke-opacity:1;stroke-miterlimit:10;" d="M 311.246094 78.660156 L 327.992188 80.855469 L 326.855469 79.785156 L 329.410156 81.113281 L 326.597656 81.738281 L 327.972656 80.996094 L 311.226562 78.804688 Z "/>
<path style="fill-rule:nonzero;fill:rgb(0%,0%,0%);fill-opacity:1;stroke-width:0.75;stroke-linecap:round;stroke-linejoin:round;stroke:rgb(0%,0%,0%);stroke-opacity:1;stroke-miterlimit:10;" d="M 308.429688 82.230469 L 322.46875 122.867188 L 322.917969 121.371094 L 322.871094 124.25 L 321.058594 122.015625 L 322.332031 122.914062 L 308.292969 82.277344 Z "/>
<path style="fill-rule:nonzero;fill:rgb(0%,0%,0%);fill-opacity:1;stroke-width:0.75;stroke-linecap:round;stroke-linejoin:round;stroke:rgb(0%,0%,0%);stroke-opacity:1;stroke-miterlimit:10;" d="M 307.597656 82.445312 L 310.191406 101.710938 L 310.925781 100.335938 L 310.3125 103.148438 L 308.972656 100.597656 L 310.046875 101.730469 L 307.457031 82.460938 Z "/>
<path style="fill-rule:nonzero;fill:rgb(0%,0%,0%);fill-opacity:1;stroke-width:0.75;stroke-linecap:round;stroke-linejoin:round;stroke:rgb(0%,0%,0%);stroke-opacity:1;stroke-miterlimit:10;" d="M 304.125 81.4375 L 281.699219 106.503906 L 283.222656 106.171875 L 280.683594 107.53125 L 281.753906 104.855469 L 281.589844 106.410156 L 304.015625 81.34375 Z "/>
<path style="fill-rule:nonzero;fill:rgb(0%,0%,0%);fill-opacity:1;stroke-width:0.75;stroke-linecap:round;stroke-linejoin:round;stroke:rgb(0%,0%,0%);stroke-opacity:1;stroke-miterlimit:10;" d="M 302.917969 79.714844 L 273.730469 90.324219 L 275.234375 90.746094 L 272.351562 90.746094 L 274.558594 88.894531 L 273.683594 90.1875 L 302.867188 79.578125 Z "/>
<path style="fill-rule:nonzero;fill:rgb(0%,0%,0%);fill-opacity:1;stroke-width:0.75;stroke-linecap:round;stroke-linejoin:round;stroke:rgb(0%,0%,0%);stroke-opacity:1;stroke-miterlimit:10;" d="M 302.863281 76.769531 L 283.695312 69.832031 L 284.574219 71.121094 L 282.367188 69.273438 L 285.246094 69.269531 L 283.746094 69.695312 L 302.914062 76.632812 Z "/>
<path style="fill-rule:nonzero;fill:rgb(0%,0%,0%);fill-opacity:1;stroke-width:0.75;stroke-linecap:round;stroke-linejoin:round;stroke:rgb(0%,0%,0%);stroke-opacity:1;stroke-miterlimit:10;" d="M 279.058594 114.882812 L 294.824219 170.074219 L 295.355469 168.609375 L 295.152344 171.480469 L 293.460938 169.148438 L 294.6875 170.117188 L 278.921875 114.921875 Z "/>
<path style="fill-rule:nonzero;fill:rgb(0%,0%,0%);fill-opacity:1;stroke-width:0.75;stroke-linecap:round;stroke-linejoin:round;stroke:rgb(0%,0%,0%);stroke-opacity:1;stroke-miterlimit:10;" d="M 278.335938 115.039062 L 280.90625 139.070312 L 281.679688 137.714844 L 280.988281 140.511719 L 279.71875 137.925781 L 280.761719 139.085938 L 278.191406 115.054688 Z "/>
<path style="fill-rule:nonzero;fill:rgb(0%,0%,0%);fill-opacity:1;stroke-width:0.75;stroke-linecap:round;stroke-linejoin:round;stroke:rgb(0%,0%,0%);stroke-opacity:1;stroke-miterlimit:10;" d="M 281.628906 108.742188 L 328.660156 85.039062 L 327.117188 84.792969 L 329.976562 84.453125 L 328.003906 86.550781 L 328.722656 85.164062 L 281.695312 108.871094 Z "/>
<path style="fill-rule:nonzero;fill:rgb(0%,0%,0%);fill-opacity:1;stroke-width:0.75;stroke-linecap:round;stroke-linejoin:round;stroke:rgb(0%,0%,0%);stroke-opacity:1;stroke-miterlimit:10;" d="M 281.769531 112.464844 L 316.539062 128.195312 L 315.761719 126.84375 L 317.820312 128.855469 L 314.949219 128.636719 L 316.480469 128.328125 L 281.710938 112.597656 Z "/>
<path style="fill-rule:nonzero;fill:rgb(0%,0%,0%);fill-opacity:1;stroke-width:0.75;stroke-linecap:round;stroke-linejoin:round;stroke:rgb(0%,0%,0%);stroke-opacity:1;stroke-miterlimit:10;" d="M 282.105469 110.339844 L 304.515625 108.578125 L 303.183594 107.769531 L 305.957031 108.539062 L 303.335938 109.730469 L 304.527344 108.722656 L 282.117188 110.484375 Z "/>
<path style="fill-rule:nonzero;fill:rgb(0%,0%,0%);fill-opacity:1;stroke-width:0.75;stroke-linecap:round;stroke-linejoin:round;stroke:rgb(0%,0%,0%);stroke-opacity:1;stroke-miterlimit:10;" d="M 280.632812 107.480469 L 303.058594 82.417969 L 301.53125 82.75 L 304.070312 81.390625 L 303 84.066406 L 303.164062 82.511719 L 280.738281 107.578125 Z "/>
<path style="fill-rule:nonzero;fill:rgb(0%,0%,0%);fill-opacity:1;stroke-width:0.75;stroke-linecap:round;stroke-linejoin:round;stroke:rgb(0%,0%,0%);stroke-opacity:1;stroke-miterlimit:10;" d="M 275.511719 107.085938 L 270.59375 98.917969 L 270.464844 100.472656 L 269.910156 97.648438 L 272.152344 99.457031 L 270.714844 98.84375 L 275.636719 107.011719 Z "/>
<path style="fill-rule:nonzero;fill:rgb(0%,0%,0%);fill-opacity:1;stroke-width:0.75;stroke-linecap:round;stroke-linejoin:round;stroke:rgb(0%,0%,0%);stroke-opacity:1;stroke-miterlimit:10;" d="M 272.617188 91.738281 L 328 82.921875 L 326.605469 82.21875 L 329.433594 82.765625 L 326.914062 84.164062 L 328.023438 83.0625 L 272.640625 91.878906 Z "/>
<path style="fill-rule:nonzero;fill:rgb(0%,0%,0%);fill-opacity:1;stroke-width:0.75;stroke-linecap:round;stroke-linejoin:round;stroke:rgb(0%,0%,0%);stroke-opacity:1;stroke-miterlimit:10;" d="M 271.753906 95.878906 L 317.382812 126.714844 L 316.84375 125.246094 L 318.535156 127.578125 L 315.742188 126.878906 L 317.300781 126.832031 L 271.671875 96 Z "/>
<path style="fill-rule:nonzero;fill:rgb(0%,0%,0%);fill-opacity:1;stroke-width:0.75;stroke-linecap:round;stroke-linejoin:round;stroke:rgb(0%,0%,0%);stroke-opacity:1;stroke-miterlimit:10;" d="M 272.398438 94.550781 L 304.890625 105.933594 L 303.996094 104.652344 L 306.226562 106.476562 L 303.347656 106.511719 L 304.84375 106.070312 L 272.351562 94.6875 Z "/>
<path style="fill-rule:nonzero;fill:rgb(0%,0%,0%);fill-opacity:1;stroke-width:0.75;stroke-linecap:round;stroke-linejoin:round;stroke:rgb(0%,0%,0%);stroke-opacity:1;stroke-miterlimit:10;" d="M 272.328125 90.679688 L 301.511719 80.070312 L 300.011719 79.644531 L 302.890625 79.648438 L 300.683594 81.496094 L 301.5625 80.207031 L 272.378906 90.8125 Z "/>
<path style="fill-rule:nonzero;fill:rgb(0%,0%,0%);fill-opacity:1;stroke-width:0.75;stroke-linecap:round;stroke-linejoin:round;stroke:rgb(0%,0%,0%);stroke-opacity:1;stroke-miterlimit:10;" d="M 269.972656 97.609375 L 274.894531 105.777344 L 275.023438 104.222656 L 275.574219 107.050781 L 273.335938 105.238281 L 274.769531 105.851562 L 269.851562 97.683594 Z "/>
<path style="fill-rule:nonzero;fill:rgb(0%,0%,0%);fill-opacity:1;stroke-width:0.75;stroke-linecap:round;stroke-linejoin:round;stroke:rgb(0%,0%,0%);stroke-opacity:1;stroke-miterlimit:10;" d="M 280.605469 70.167969 L 258.472656 133.511719 L 259.753906 132.617188 L 257.933594 134.847656 L 257.894531 131.96875 L 258.339844 133.464844 L 280.46875 70.121094 Z "/>
<path style="fill-rule:nonzero;fill:rgb(0%,0%,0%);fill-opacity:1;stroke-width:0.75;stroke-linecap:round;stroke-linejoin:round;stroke:rgb(0%,0%,0%);stroke-opacity:1;stroke-miterlimit:10;" d="M 282.429688 69.050781 L 328.140625 80.097656 L 327.121094 78.914062 L 329.523438 80.507812 L 326.660156 80.828125 L 328.105469 80.238281 L 282.394531 69.191406 Z "/>
<path style="fill-rule:nonzero;fill:rgb(0%,0%,0%);fill-opacity:1;stroke-width:0.75;stroke-linecap:round;stroke-linejoin:round;stroke:rgb(0%,0%,0%);stroke-opacity:1;stroke-miterlimit:10;" d="M 281.898438 69.921875 L 319.960938 124.125 L 319.980469 122.566406 L 320.726562 125.34375 L 318.367188 123.695312 L 319.839844 124.207031 L 281.78125 70.003906 Z "/>
<path style="fill-rule:nonzero;fill:rgb(0%,0%,0%);fill-opacity:1;stroke-width:0.75;stroke-linecap:round;stroke-linejoin:round;stroke:rgb(0%,0%,0%);stroke-opacity:1;stroke-miterlimit:10;" d="M 281.941406 69.886719 L 307.113281 102.945312 L 307.074219 101.382812 L 307.929688 104.132812 L 305.507812 102.578125 L 307 103.03125 L 281.828125 69.972656 Z "/>
<path style="fill-rule:nonzero;fill:rgb(0%,0%,0%);fill-opacity:1;stroke-width:0.75;stroke-linecap:round;stroke-linejoin:round;stroke:rgb(0%,0%,0%);stroke-opacity:1;stroke-miterlimit:10;" d="M 282.390625 69.207031 L 301.558594 76.144531 L 300.679688 74.855469 L 302.890625 76.703125 L 300.007812 76.707031 L 301.511719 76.277344 L 282.339844 69.339844 Z "/>
<path style="fill-rule:nonzero;fill:rgb(0%,0%,0%);fill-opacity:1;stroke-width:0.75;stroke-linecap:round;stroke-linejoin:round;stroke:rgb(0%,0%,0%);stroke-opacity:1;stroke-miterlimit:10;" d="M 280.972656 70.226562 L 278.316406 105.011719 L 279.320312 103.820312 L 278.132812 106.441406 L 277.359375 103.667969 L 278.171875 105 L 280.832031 70.214844 Z "/>
<path style="fill-rule:nonzero;fill:rgb(0%,0%,0%);fill-opacity:1;stroke-width:0.75;stroke-linecap:round;stroke-linejoin:round;stroke:rgb(0%,0%,0%);stroke-opacity:1;stroke-miterlimit:10;" d="M 280.34375 70.0625 L 270.652344 86.542969 L 272.082031 85.914062 L 269.859375 87.75 L 270.382812 84.917969 L 270.527344 86.472656 L 280.21875 69.988281 Z "/>
<path style="fill-rule:nonzero;fill:rgb(0%,0%,0%);fill-opacity:1;stroke-width:0.75;stroke-linecap:round;stroke-linejoin:round;stroke:rgb(0%,0%,0%);stroke-opacity:1;stroke-miterlimit:10;" d="M 377.402344 169.765625 L 318.46875 147.6875 L 319.332031 148.984375 L 317.144531 147.113281 L 320.023438 147.140625 L 318.519531 147.550781 L 377.453125 169.632812 Z "/>
<path style="fill-rule:nonzero;fill:rgb(0%,0%,0%);fill-opacity:1;stroke-width:0.75;stroke-linecap:round;stroke-linejoin:round;stroke:rgb(0%,0%,0%);stroke-opacity:1;stroke-miterlimit:10;" d="M 377.601562 171.574219 L 326.875 199.941406 L 328.425781 200.121094 L 325.582031 200.582031 L 327.464844 198.398438 L 326.804688 199.816406 L 377.53125 171.449219 Z "/>
<path style="fill-rule:nonzero;fill:rgb(0%,0%,0%);fill-opacity:1;stroke-width:0.75;stroke-linecap:round;stroke-linejoin:round;stroke:rgb(0%,0%,0%);stroke-opacity:1;stroke-miterlimit:10;" d="M 360.023438 204.59375 L 303.308594 179.953125 L 304.105469 181.296875 L 302.015625 179.3125 L 304.890625 179.488281 L 303.367188 179.820312 L 360.082031 204.464844 Z "/>
<path style="fill-rule:nonzero;fill:rgb(0%,0%,0%);fill-opacity:1;stroke-width:0.75;stroke-linecap:round;stroke-linejoin:round;stroke:rgb(0%,0%,0%);stroke-opacity:1;stroke-miterlimit:10;" d="M 360.335938 204.199219 L 330.015625 141.523438 L 329.746094 143.058594 L 329.457031 140.195312 L 331.519531 142.203125 L 330.148438 141.460938 L 360.464844 204.136719 Z "/>
<path style="fill-rule:nonzero;fill:rgb(0%,0%,0%);fill-opacity:1;stroke-width:0.75;stroke-linecap:round;stroke-linejoin:round;stroke:rgb(0%,0%,0%);stroke-opacity:1;stroke-miterlimit:10;" d="M 360.996094 204.148438 L 377.664062 173.582031 L 376.257812 174.257812 L 378.417969 172.355469 L 377.988281 175.199219 L 377.792969 173.652344 L 361.121094 204.21875 Z "/>
<path style="fill-rule:nonzero;fill:rgb(0%,0%,0%);fill-opacity:1;stroke-width:0.75;stroke-linecap:round;stroke-linejoin:round;stroke:rgb(0%,0%,0%);stroke-opacity:1;stroke-miterlimit:10;" d="M 383.933594 122.800781 L 340.597656 86.535156 L 340.980469 88.050781 L 339.539062 85.558594 L 342.246094 86.539062 L 340.6875 86.425781 L 384.023438 122.6875 Z "/>
<path style="fill-rule:nonzero;fill:rgb(0%,0%,0%);fill-opacity:1;stroke-width:0.75;stroke-linecap:round;stroke-linejoin:round;stroke:rgb(0%,0%,0%);stroke-opacity:1;stroke-miterlimit:10;" d="M 383.832031 123.390625 L 335.664062 130.929688 L 337.054688 131.636719 L 334.230469 131.082031 L 336.75 129.6875 L 335.640625 130.785156 L 383.808594 123.246094 Z "/>
<path style="fill-rule:nonzero;fill:rgb(0%,0%,0%);fill-opacity:1;stroke-width:0.75;stroke-linecap:round;stroke-linejoin:round;stroke:rgb(0%,0%,0%);stroke-opacity:1;stroke-miterlimit:10;" d="M 384.523438 123.929688 L 379.90625 166.886719 L 380.953125 165.722656 L 379.683594 168.308594 L 378.992188 165.511719 L 379.765625 166.871094 L 384.382812 123.914062 Z "/>
<path style="fill-rule:nonzero;fill:rgb(0%,0%,0%);fill-opacity:1;stroke-width:0.75;stroke-linecap:round;stroke-linejoin:round;stroke:rgb(0%,0%,0%);stroke-opacity:1;stroke-miterlimit:10;" d="M 324.304688 200.609375 L 273.351562 168.691406 L 273.941406 170.136719 L 272.171875 167.867188 L 274.988281 168.46875 L 273.429688 168.570312 L 324.382812 200.488281 Z "/>
<path style="fill-rule:nonzero;fill:rgb(0%,0%,0%);fill-opacity:1;stroke-width:0.75;stroke-linecap:round;stroke-linejoin:round;stroke:rgb(0%,0%,0%);stroke-opacity:1;stroke-miterlimit:10;" d="M 324.800781 200.226562 L 321.691406 172.746094 L 320.925781 174.109375 L 321.601562 171.308594 L 322.882812 173.886719 L 321.835938 172.730469 L 324.945312 200.207031 Z "/>
<path style="fill-rule:nonzero;fill:rgb(0%,0%,0%);fill-opacity:1;stroke-width:0.75;stroke-linecap:round;stroke-linejoin:round;stroke:rgb(0%,0%,0%);stroke-opacity:1;stroke-miterlimit:10;" d="M 324.457031 200.40625 L 284.917969 149.402344 L 284.972656 150.960938 L 284.09375 148.21875 L 286.53125 149.753906 L 285.03125 149.3125 L 324.570312 200.320312 Z "/>
<path style="fill-rule:nonzero;fill:rgb(0%,0%,0%);fill-opacity:1;stroke-width:0.75;stroke-linecap:round;stroke-linejoin:round;stroke:rgb(0%,0%,0%);stroke-opacity:1;stroke-miterlimit:10;" d="M 324.890625 200.210938 L 325.511719 142.496094 L 324.585938 143.75 L 325.601562 141.054688 L 326.554688 143.773438 L 325.65625 142.496094 L 325.035156 200.214844 Z "/>
<path style="fill-rule:nonzero;fill:rgb(0%,0%,0%);fill-opacity:1;stroke-width:0.75;stroke-linecap:round;stroke-linejoin:round;stroke:rgb(0%,0%,0%);stroke-opacity:1;stroke-miterlimit:10;" d="M 325.675781 200.9375 L 358.574219 204.511719 L 357.414062 203.46875 L 359.996094 204.738281 L 357.199219 205.425781 L 358.558594 204.65625 L 325.660156 201.082031 Z "/>
<path style="fill-rule:nonzero;fill:rgb(0%,0%,0%);fill-opacity:1;stroke-width:0.75;stroke-linecap:round;stroke-linejoin:round;stroke:rgb(0%,0%,0%);stroke-opacity:1;stroke-miterlimit:10;" d="M 267.898438 158.875 L 261.582031 165.191406 L 267.898438 171.507812 L 274.214844 165.191406 Z "/>
<path style="fill-rule:nonzero;fill:rgb(0%,0%,0%);fill-opacity:1;stroke-width:0.75;stroke-linecap:round;stroke-linejoin:round;stroke:rgb(0%,0%,0%);stroke-opacity:1;stroke-miterlimit:10;" d="M 261.214844 190.714844 L 255.800781 196.128906 L 261.214844 201.542969 L 266.628906 196.128906 Z "/>
<path style="fill-rule:nonzero;fill:rgb(0%,0%,0%);fill-opacity:1;stroke-width:0.75;stroke-linecap:round;stroke-linejoin:round;stroke:rgb(0%,0%,0%);stroke-opacity:1;stroke-miterlimit:10;" d="M 321.113281 161.601562 L 315.699219 167.015625 L 321.113281 172.429688 L 326.53125 167.015625 Z "/>
<path style="fill-rule:nonzero;fill:rgb(0%,0%,0%);fill-opacity:1;stroke-width:0.75;stroke-linecap:round;stroke-linejoin:round;stroke:rgb(0%,0%,0%);stroke-opacity:1;stroke-miterlimit:10;" d="M 256.269531 133.289062 L 249.953125 139.605469 L 256.269531 145.921875 L 262.585938 139.605469 Z "/>
<path style="fill-rule:nonzero;fill:rgb(0%,0%,0%);fill-opacity:1;stroke-width:0.75;stroke-linecap:round;stroke-linejoin:round;stroke:rgb(0%,0%,0%);stroke-opacity:1;stroke-miterlimit:10;" d="M 312.425781 139.027344 L 306.109375 145.34375 L 312.425781 151.660156 L 318.742188 145.34375 Z "/>
<path style="fill-rule:nonzero;fill:rgb(0%,0%,0%);fill-opacity:1;stroke-width:0.75;stroke-linecap:round;stroke-linejoin:round;stroke:rgb(0%,0%,0%);stroke-opacity:1;stroke-miterlimit:10;" d="M 302.453125 176.296875 L 302.320312 175.585938 L 302.09375 174.894531 L 301.785156 174.242188 L 301.398438 173.628906 L 300.9375 173.070312 L 300.410156 172.574219 L 299.824219 172.148438 L 299.1875 171.800781 L 298.515625 171.535156 L 297.8125 171.355469 L 297.09375 171.261719 L 296.371094 171.261719 L 295.652344 171.355469 L 294.949219 171.535156 L 294.277344 171.800781 L 293.640625 172.148438 L 293.054688 172.574219 L 292.527344 173.070312 L 292.066406 173.628906 L 291.679688 174.242188 L 291.371094 174.894531 L 291.148438 175.585938 L 291.011719 176.296875 L 290.964844 177.019531 L 291.011719 177.742188 L 291.148438 178.453125 L 291.371094 179.140625 L 291.679688 179.796875 L 292.066406 180.410156 L 292.527344 180.96875 L 293.054688 181.464844 L 293.640625 181.890625 L 294.277344 182.238281 L 294.949219 182.503906 L 295.652344 182.683594 L 296.371094 182.773438 L 297.09375 182.773438 L 297.8125 182.683594 L 298.515625 182.503906 L 299.1875 182.238281 L 299.824219 181.890625 L 300.410156 181.464844 L 300.9375 180.96875 L 301.398438 180.410156 L 301.785156 179.796875 L 302.09375 179.140625 L 302.320312 178.453125 L 302.453125 177.742188 L 302.5 177.019531 Z "/>
<path style="fill-rule:nonzero;fill:rgb(0%,0%,0%);fill-opacity:1;stroke-width:0.75;stroke-linecap:round;stroke-linejoin:round;stroke:rgb(0%,0%,0%);stroke-opacity:1;stroke-miterlimit:10;" d="M 281.445312 139.390625 L 276.03125 144.804688 L 281.445312 150.21875 L 286.863281 144.804688 Z "/>
<path style="fill-rule:nonzero;fill:rgb(0%,80.392157%,0%);fill-opacity:1;stroke-width:0.75;stroke-linecap:round;stroke-linejoin:round;stroke:rgb(0%,0%,0%);stroke-opacity:1;stroke-miterlimit:10;" d="M 340.84375 81.136719 L 340.707031 80.425781 L 340.484375 79.738281 L 340.175781 79.082031 L 339.785156 78.472656 L 339.324219 77.914062 L 338.796875 77.417969 L 338.210938 76.992188 L 337.578125 76.640625 L 336.902344 76.375 L 336.203125 76.195312 L 335.484375 76.105469 L 334.757812 76.105469 L 334.039062 76.195312 L 333.339844 76.375 L 332.664062 76.640625 L 332.03125 76.992188 L 331.445312 77.417969 L 330.917969 77.914062 L 330.453125 78.472656 L 330.066406 79.082031 L 329.757812 79.738281 L 329.535156 80.425781 L 329.398438 81.136719 L 329.351562 81.859375 L 329.398438 82.582031 L 329.535156 83.296875 L 329.757812 83.984375 L 330.066406 84.640625 L 330.453125 85.25 L 330.917969 85.808594 L 331.445312 86.304688 L 332.03125 86.730469 L 332.664062 87.078125 L 333.339844 87.347656 L 334.039062 87.527344 L 334.757812 87.617188 L 335.484375 87.617188 L 336.203125 87.527344 L 336.902344 87.347656 L 337.578125 87.078125 L 338.210938 86.730469 L 338.796875 86.304688 L 339.324219 85.808594 L 339.785156 85.25 L 340.175781 84.640625 L 340.484375 83.984375 L 340.707031 83.296875 L 340.84375 82.582031 L 340.886719 81.859375 Z "/>
<path style="fill-rule:nonzero;fill:rgb(0%,80.392157%,0%);fill-opacity:1;stroke-width:0.75;stroke-linecap:round;stroke-linejoin:round;stroke:rgb(0%,0%,0%);stroke-opacity:1;stroke-miterlimit:10;" d="M 334.277344 131.332031 L 334.074219 130.265625 L 333.738281 129.230469 L 333.273438 128.25 L 332.691406 127.332031 L 332 126.492188 L 331.207031 125.75 L 330.328125 125.113281 L 329.375 124.589844 L 328.367188 124.1875 L 327.3125 123.917969 L 326.234375 123.78125 L 325.148438 123.78125 L 324.070312 123.917969 L 323.019531 124.1875 L 322.007812 124.589844 L 321.058594 125.113281 L 320.179688 125.75 L 319.386719 126.492188 L 318.695312 127.332031 L 318.113281 128.25 L 317.648438 129.230469 L 317.3125 130.265625 L 317.109375 131.332031 L 317.042969 132.417969 L 317.109375 133.5 L 317.3125 134.566406 L 317.648438 135.601562 L 318.113281 136.585938 L 318.695312 137.5 L 319.386719 138.339844 L 320.179688 139.082031 L 321.058594 139.722656 L 322.007812 140.246094 L 323.019531 140.644531 L 324.070312 140.914062 L 325.148438 141.050781 L 326.234375 141.050781 L 327.3125 140.914062 L 328.367188 140.644531 L 329.375 140.246094 L 330.328125 139.722656 L 331.207031 139.082031 L 332 138.339844 L 332.691406 137.5 L 333.273438 136.585938 L 333.738281 135.601562 L 334.074219 134.566406 L 334.277344 133.5 L 334.34375 132.417969 Z "/>
<path style="fill-rule:nonzero;fill:rgb(0%,80.392157%,0%);fill-opacity:1;stroke-width:0.75;stroke-linecap:round;stroke-linejoin:round;stroke:rgb(0%,0%,0%);stroke-opacity:1;stroke-miterlimit:10;" d="M 315.988281 107.511719 L 315.871094 106.886719 L 315.675781 106.285156 L 315.40625 105.710938 L 315.066406 105.175781 L 314.660156 104.6875 L 314.199219 104.253906 L 313.6875 103.882812 L 313.132812 103.578125 L 312.542969 103.34375 L 311.929688 103.1875 L 311.300781 103.105469 L 310.664062 103.105469 L 310.035156 103.1875 L 309.421875 103.34375 L 308.832031 103.578125 L 308.277344 103.882812 L 307.765625 104.253906 L 307.304688 104.6875 L 306.898438 105.175781 L 306.558594 105.710938 L 306.289062 106.285156 L 306.09375 106.886719 L 305.976562 107.511719 L 305.9375 108.144531 L 305.976562 108.777344 L 306.09375 109.398438 L 306.289062 110 L 306.558594 110.574219 L 306.898438 111.109375 L 307.304688 111.597656 L 307.765625 112.03125 L 308.277344 112.40625 L 308.832031 112.710938 L 309.421875 112.941406 L 310.035156 113.101562 L 310.664062 113.179688 L 311.300781 113.179688 L 311.929688 113.101562 L 312.542969 112.941406 L 313.132812 112.710938 L 313.6875 112.40625 L 314.199219 112.03125 L 314.660156 111.597656 L 315.066406 111.109375 L 315.40625 110.574219 L 315.675781 110 L 315.871094 109.398438 L 315.988281 108.777344 L 316.03125 108.144531 Z "/>
<path style="fill-rule:nonzero;fill:rgb(0%,80.392157%,0%);fill-opacity:1;stroke-width:0.75;stroke-linecap:round;stroke-linejoin:round;stroke:rgb(0%,0%,0%);stroke-opacity:1;stroke-miterlimit:10;" d="M 311.242188 77.628906 L 311.140625 77.097656 L 310.972656 76.578125 L 310.742188 76.085938 L 310.449219 75.628906 L 310.105469 75.210938 L 309.707031 74.839844 L 309.269531 74.519531 L 308.792969 74.257812 L 308.289062 74.058594 L 307.761719 73.921875 L 307.222656 73.855469 L 306.679688 73.855469 L 306.140625 73.921875 L 305.613281 74.058594 L 305.109375 74.257812 L 304.632812 74.519531 L 304.195312 74.839844 L 303.796875 75.210938 L 303.453125 75.628906 L 303.160156 76.085938 L 302.929688 76.578125 L 302.761719 77.097656 L 302.660156 77.628906 L 302.625 78.171875 L 302.660156 78.714844 L 302.761719 79.246094 L 302.929688 79.765625 L 303.160156 80.253906 L 303.453125 80.714844 L 303.796875 81.132812 L 304.195312 81.503906 L 304.632812 81.824219 L 305.109375 82.085938 L 305.613281 82.285156 L 306.140625 82.421875 L 306.679688 82.488281 L 307.222656 82.488281 L 307.761719 82.421875 L 308.289062 82.285156 L 308.792969 82.085938 L 309.269531 81.824219 L 309.707031 81.503906 L 310.105469 81.132812 L 310.449219 80.714844 L 310.742188 80.253906 L 310.972656 79.765625 L 311.140625 79.246094 L 311.242188 78.714844 L 311.277344 78.171875 Z "/>
<path style="fill-rule:nonzero;fill:rgb(0%,80.392157%,0%);fill-opacity:1;stroke-width:0.75;stroke-linecap:round;stroke-linejoin:round;stroke:rgb(0%,0%,0%);stroke-opacity:1;stroke-miterlimit:10;" d="M 282.097656 110.207031 L 281.992188 109.675781 L 281.828125 109.15625 L 281.59375 108.664062 L 281.304688 108.207031 L 280.957031 107.789062 L 280.5625 107.417969 L 280.121094 107.097656 L 279.644531 106.835938 L 279.140625 106.636719 L 278.613281 106.5 L 278.074219 106.433594 L 277.53125 106.433594 L 276.992188 106.5 L 276.46875 106.636719 L 275.960938 106.835938 L 275.488281 107.097656 L 275.046875 107.417969 L 274.652344 107.789062 L 274.304688 108.207031 L 274.011719 108.664062 L 273.78125 109.15625 L 273.613281 109.675781 L 273.511719 110.207031 L 273.480469 110.75 L 273.511719 111.292969 L 273.613281 111.824219 L 273.78125 112.34375 L 274.011719 112.832031 L 274.304688 113.292969 L 274.652344 113.710938 L 275.046875 114.082031 L 275.488281 114.402344 L 275.960938 114.664062 L 276.46875 114.863281 L 276.992188 115 L 277.53125 115.066406 L 278.074219 115.066406 L 278.613281 115 L 279.140625 114.863281 L 279.644531 114.664062 L 280.121094 114.402344 L 280.5625 114.082031 L 280.957031 113.710938 L 281.304688 113.292969 L 281.59375 112.832031 L 281.828125 112.34375 L 281.992188 111.824219 L 282.097656 111.292969 L 282.128906 110.75 Z "/>
<path style="fill-rule:nonzero;fill:rgb(0%,80.392157%,0%);fill-opacity:1;stroke-width:0.75;stroke-linecap:round;stroke-linejoin:round;stroke:rgb(0%,0%,0%);stroke-opacity:1;stroke-miterlimit:10;" d="M 272.660156 91.992188 L 272.527344 91.28125 L 272.300781 90.589844 L 271.992188 89.9375 L 271.605469 89.324219 L 271.144531 88.765625 L 270.617188 88.269531 L 270.03125 87.84375 L 269.394531 87.496094 L 268.722656 87.230469 L 268.019531 87.046875 L 267.300781 86.957031 L 266.578125 86.957031 L 265.859375 87.046875 L 265.15625 87.230469 L 264.484375 87.496094 L 263.847656 87.84375 L 263.261719 88.269531 L 262.734375 88.765625 L 262.273438 89.324219 L 261.886719 89.9375 L 261.578125 90.589844 L 261.351562 91.28125 L 261.21875 91.992188 L 261.171875 92.714844 L 261.21875 93.4375 L 261.351562 94.148438 L 261.578125 94.835938 L 261.886719 95.492188 L 262.273438 96.105469 L 262.734375 96.664062 L 263.261719 97.15625 L 263.847656 97.582031 L 264.484375 97.933594 L 265.15625 98.199219 L 265.859375 98.378906 L 266.578125 98.46875 L 267.300781 98.46875 L 268.019531 98.378906 L 268.722656 98.199219 L 269.394531 97.933594 L 270.03125 97.582031 L 270.617188 97.15625 L 271.144531 96.664062 L 271.605469 96.105469 L 271.992188 95.492188 L 272.300781 94.835938 L 272.527344 94.148438 L 272.660156 93.4375 L 272.707031 92.714844 Z "/>
<path style="fill-rule:nonzero;fill:rgb(0%,80.392157%,0%);fill-opacity:1;stroke-width:0.75;stroke-linecap:round;stroke-linejoin:round;stroke:rgb(0%,0%,0%);stroke-opacity:1;stroke-miterlimit:10;" d="M 282.441406 68.601562 L 282.410156 68.425781 L 282.351562 68.253906 L 282.277344 68.089844 L 282.179688 67.9375 L 282.0625 67.796875 L 281.929688 67.671875 L 281.785156 67.566406 L 281.625 67.480469 L 281.457031 67.414062 L 281.28125 67.367188 L 281.101562 67.34375 L 280.921875 67.34375 L 280.742188 67.367188 L 280.566406 67.414062 L 280.398438 67.480469 L 280.238281 67.566406 L 280.09375 67.671875 L 279.960938 67.796875 L 279.84375 67.9375 L 279.75 68.089844 L 279.671875 68.253906 L 279.617188 68.425781 L 279.582031 68.601562 L 279.570312 68.785156 L 279.582031 68.964844 L 279.617188 69.140625 L 279.671875 69.316406 L 279.75 69.476562 L 279.84375 69.632812 L 279.960938 69.769531 L 280.09375 69.894531 L 280.238281 70 L 280.398438 70.089844 L 280.566406 70.15625 L 280.742188 70.199219 L 280.921875 70.222656 L 281.101562 70.222656 L 281.28125 70.199219 L 281.457031 70.15625 L 281.625 70.089844 L 281.785156 70 L 281.929688 69.894531 L 282.0625 69.769531 L 282.179688 69.632812 L 282.277344 69.476562 L 282.351562 69.316406 L 282.410156 69.140625 L 282.441406 68.964844 L 282.453125 68.785156 Z "/>
<path style="fill-rule:nonzero;fill:rgb(100%,0%,0%);fill-opacity:1;stroke-width:0.75;stroke-linecap:round;stroke-linejoin:round;stroke:rgb(0%,0%,0%);stroke-opacity:1;stroke-miterlimit:10;" d="M 381.597656 170.1875 L 381.546875 169.917969 L 381.460938 169.660156 L 381.347656 169.414062 L 381.203125 169.1875 L 381.027344 168.976562 L 380.832031 168.789062 L 380.609375 168.632812 L 380.371094 168.5 L 380.121094 168.398438 L 379.855469 168.332031 L 379.585938 168.296875 L 379.316406 168.296875 L 379.046875 168.332031 L 378.785156 168.398438 L 378.53125 168.5 L 378.292969 168.632812 L 378.074219 168.789062 L 377.875 168.976562 L 377.703125 169.1875 L 377.554688 169.414062 L 377.441406 169.660156 L 377.355469 169.917969 L 377.304688 170.1875 L 377.289062 170.457031 L 377.304688 170.726562 L 377.355469 170.996094 L 377.441406 171.253906 L 377.554688 171.5 L 377.703125 171.730469 L 377.875 171.9375 L 378.074219 172.125 L 378.292969 172.285156 L 378.53125 172.414062 L 378.785156 172.515625 L 379.046875 172.582031 L 379.316406 172.617188 L 379.585938 172.617188 L 379.855469 172.582031 L 380.121094 172.515625 L 380.371094 172.414062 L 380.609375 172.285156 L 380.832031 172.125 L 381.027344 171.9375 L 381.203125 171.730469 L 381.347656 171.5 L 381.460938 171.253906 L 381.546875 170.996094 L 381.597656 170.726562 L 381.613281 170.457031 Z "/>
<path style="fill-rule:nonzero;fill:rgb(100%,0%,0%);fill-opacity:1;stroke-width:0.75;stroke-linecap:round;stroke-linejoin:round;stroke:rgb(0%,0%,0%);stroke-opacity:1;stroke-miterlimit:10;" d="M 361.429688 204.726562 L 361.410156 204.636719 L 361.382812 204.550781 L 361.34375 204.46875 L 361.296875 204.390625 L 361.238281 204.324219 L 361.171875 204.261719 L 361.097656 204.207031 L 361.019531 204.164062 L 360.933594 204.128906 L 360.847656 204.109375 L 360.757812 204.097656 L 360.667969 204.097656 L 360.578125 204.109375 L 360.488281 204.128906 L 360.40625 204.164062 L 360.328125 204.207031 L 360.253906 204.261719 L 360.1875 204.324219 L 360.128906 204.390625 L 360.082031 204.46875 L 360.042969 204.550781 L 360.015625 204.636719 L 359.996094 204.726562 L 359.992188 204.816406 L 359.996094 204.90625 L 360.015625 204.996094 L 360.042969 205.082031 L 360.082031 205.164062 L 360.128906 205.238281 L 360.1875 205.308594 L 360.253906 205.371094 L 360.328125 205.425781 L 360.40625 205.46875 L 360.488281 205.5 L 360.578125 205.523438 L 360.667969 205.535156 L 360.757812 205.535156 L 360.847656 205.523438 L 360.933594 205.5 L 361.019531 205.46875 L 361.097656 205.425781 L 361.171875 205.371094 L 361.238281 205.308594 L 361.296875 205.238281 L 361.34375 205.164062 L 361.382812 205.082031 L 361.410156 204.996094 L 361.429688 204.90625 L 361.433594 204.816406 Z "/>
<path style="fill-rule:nonzero;fill:rgb(100%,0%,0%);fill-opacity:1;stroke-width:0.75;stroke-linecap:round;stroke-linejoin:round;stroke:rgb(0%,0%,0%);stroke-opacity:1;stroke-miterlimit:10;" d="M 385.246094 123.117188 L 385.230469 123.027344 L 385.199219 122.941406 L 385.164062 122.859375 L 385.113281 122.78125 L 385.054688 122.710938 L 384.988281 122.652344 L 384.917969 122.597656 L 384.835938 122.554688 L 384.753906 122.519531 L 384.664062 122.5 L 384.574219 122.488281 L 384.484375 122.488281 L 384.394531 122.5 L 384.308594 122.519531 L 384.222656 122.554688 L 384.144531 122.597656 L 384.070312 122.652344 L 384.003906 122.710938 L 383.949219 122.78125 L 383.898438 122.859375 L 383.859375 122.941406 L 383.832031 123.027344 L 383.816406 123.117188 L 383.808594 123.207031 L 383.816406 123.296875 L 383.832031 123.386719 L 383.859375 123.472656 L 383.898438 123.554688 L 383.949219 123.628906 L 384.003906 123.699219 L 384.070312 123.761719 L 384.144531 123.816406 L 384.222656 123.859375 L 384.308594 123.890625 L 384.394531 123.914062 L 384.484375 123.925781 L 384.574219 123.925781 L 384.664062 123.914062 L 384.753906 123.890625 L 384.835938 123.859375 L 384.917969 123.816406 L 384.988281 123.761719 L 385.054688 123.699219 L 385.113281 123.628906 L 385.164062 123.554688 L 385.199219 123.472656 L 385.230469 123.386719 L 385.246094 123.296875 L 385.25 123.207031 Z "/>
<path style="fill-rule:nonzero;fill:rgb(100%,0%,0%);fill-opacity:1;stroke-width:0.75;stroke-linecap:round;stroke-linejoin:round;stroke:rgb(0%,0%,0%);stroke-opacity:1;stroke-miterlimit:10;" d="M 325.667969 200.839844 L 325.652344 200.753906 L 325.625 200.667969 L 325.585938 200.585938 L 325.539062 200.507812 L 325.480469 200.4375 L 325.414062 200.375 L 325.339844 200.324219 L 325.261719 200.28125 L 325.175781 200.246094 L 325.089844 200.222656 L 325 200.210938 L 324.910156 200.210938 L 324.820312 200.222656 L 324.730469 200.246094 L 324.648438 200.28125 L 324.566406 200.324219 L 324.496094 200.375 L 324.429688 200.4375 L 324.371094 200.507812 L 324.320312 200.585938 L 324.285156 200.667969 L 324.253906 200.753906 L 324.238281 200.839844 L 324.234375 200.933594 L 324.238281 201.023438 L 324.253906 201.113281 L 324.285156 201.199219 L 324.320312 201.28125 L 324.371094 201.355469 L 324.429688 201.425781 L 324.496094 201.488281 L 324.566406 201.539062 L 324.648438 201.585938 L 324.730469 201.617188 L 324.820312 201.640625 L 324.910156 201.652344 L 325 201.652344 L 325.089844 201.640625 L 325.175781 201.617188 L 325.261719 201.585938 L 325.339844 201.539062 L 325.414062 201.488281 L 325.480469 201.425781 L 325.539062 201.355469 L 325.585938 201.28125 L 325.625 201.199219 L 325.652344 201.113281 L 325.667969 201.023438 L 325.675781 200.933594 Z "/>
</g>
</svg>
